<svg class="img-fluid" id="outputsvg" xmlns="http://www.w3.org/2000/svg" style="transform: matrix(1, 0, 0, 1, 0, 0); transform-origin: 50% 50%; cursor: move; max-height: none; transition: transform 200ms ease-in-out;" width="570" height="466" viewBox="0 0 5700 4660"><g id="l7JszuL3qZ806krCckVfdUM" fill="rgb(106,72,172)" style="transform: none;"><g style="transform: none;"><path id="pL5qjuF7p" d="M0 4352 l0 -308 578 3 c317 2 674 -1 792 -6 118 -5 259 -7 313 -4 l97 6 0 32 0 32 68 6 c37 4 237 7 445 7 l377 0 0 34 c0 25 -5 36 -17 38 -59 14 1342 35 1727 27 157 -4 391 -8 520 -9 157 -2 218 -5 185 -10 -27 -5 -244 -9 -481 -9 -237 -1 -452 -4 -478 -7 -42 -6 -46 -9 -46 -34 l0 -28 -117 -6 c-65 -3 -215 -11 -333 -17 -136 -7 -457 -10 -872 -7 l-658 4 0 -23 c0 -17 -6 -23 -22 -23 -98 -1 -270 -22 -303 -37 -33 -14 -82 -18 -270 -23 l-230 -5 -3 -37 -3 -38 -635 0 -634 0 0 -169 0 -170 1098 -1 c603 0 1167 -4 1252 -8 l155 -8 -310 -9 c-170 -6 -734 -9 -1252 -8 l-943 2 0 -965 0 -966 348 6 c191 3 535 9 765 12 l417 6 0 53 c0 33 -5 55 -12 58 -7 3 110 6 260 6 l272 1 0 40 c0 38 -2 40 -31 40 -27 0 -29 2 -15 15 10 10 57 21 128 31 62 8 132 17 156 20 27 4 42 11 42 20 0 11 17 14 75 14 l75 0 0 33 0 34 -322 6 c-287 6 -738 27 -698 34 81 12 502 23 938 24 l532 1 0 34 c0 32 -2 34 -32 34 -25 0 -29 3 -18 10 8 5 32 10 53 10 20 0 37 4 37 8 0 5 42 13 93 19 99 12 147 28 147 50 0 7 4 13 9 13 5 0 17 7 26 16 8 9 48 23 88 31 39 8 74 19 75 24 2 5 12 9 23 9 10 0 19 5 19 10 0 6 9 10 20 10 11 0 20 4 20 9 0 5 19 11 43 15 92 12 117 18 117 32 0 10 14 14 49 14 31 0 55 6 65 15 8 8 22 15 30 15 9 0 16 5 16 10 0 6 16 10 35 10 37 0 85 18 85 32 0 4 9 8 20 8 11 0 20 4 20 9 0 5 19 11 42 15 85 10 118 18 118 27 0 5 9 9 20 9 11 0 20 5 20 10 0 6 9 10 20 10 11 0 20 4 20 9 0 5 19 11 43 15 81 10 117 18 117 26 0 4 17 11 38 14 70 12 122 30 122 43 0 8 14 13 40 13 28 0 40 4 40 14 0 18 22 26 75 26 29 0 45 5 49 15 3 10 19 15 45 15 61 0 71 7 71 51 0 46 -2 46 155 53 260 13 293 17 298 37 7 25 27 24 27 -1 0 -17 7 -20 45 -20 43 0 45 1 45 30 0 20 5 30 15 30 8 0 15 4 15 10 0 5 18 14 40 20 22 6 40 15 40 20 0 6 14 10 30 10 20 0 30 5 30 15 0 10 10 15 30 15 17 0 30 5 30 10 0 6 11 10 25 10 l25 0 0 170 0 170 -72 1 c-40 1 -107 5 -148 9 -73 7 -74 7 -19 8 31 1 97 5 147 8 l92 7 0 613 0 614 -2850 0 -2850 0 0 -308z m2865 191 c192 -3 340 -10 330 -14 -26 -10 -1275 -11 -1560 -1 -178 6 -204 8 -135 13 129 8 972 10 1365 2z m-1093 -140 c-479 -3 -553 -5 -558 -18 -8 -20 -84 -21 -84 -1 0 9 13 16 33 19 17 2 286 3 597 3 l565 -1 -553 -2z m1691 -649 c226 -5 297 -10 297 -20 0 -8 -38 -14 -137 -19 -183 -10 -1367 3 -1468 16 -44 5 -190 13 -325 16 -148 4 -231 9 -210 14 39 8 1383 3 1843 -7z m-2780 -721 c-68 -2 -178 -2 -245 0 -68 1 -13 3 122 3 135 0 190 -2 123 -3z m-526 -10 c-20 -2 -52 -2 -70 0 -17 2 0 4 38 4 39 0 53 -2 32 -4z"></path><path id="p1Fz7q5DRN" d="M0 1395 l0 -198 102 8 c57 4 115 13 130 21 15 8 42 14 60 15 18 0 60 8 93 17 57 16 60 19 63 51 2 20 -2 37 -10 42 -7 5 29 9 87 9 55 0 124 3 153 6 l52 7 0 38 c0 22 4 39 8 39 5 0 19 9 32 20 13 11 34 20 47 20 20 0 23 5 23 34 l0 34 -62 6 c-35 3 -175 8 -313 11 -137 3 -298 8 -357 12 l-108 6 0 -198z"></path></g></g><g id="l2CNPDsTyWosjpqoOp0hI10" fill="rgb(118,85,174)" style="transform: none;"><g style="transform: none;"><path id="p3kq3aTew" d="M1545 4575 c-5 -2 -113 -9 -240 -15 -126 -5 -243 -14 -260 -19 l-30 -8 35 -6 c190 -32 1337 -45 2470 -28 857 13 1193 21 1184 30 -3 3 -315 11 -692 18 -378 7 -833 17 -1012 22 -303 9 -1433 14 -1455 6z"></path><path id="pCZkwuclR" d="M998 4426 c-91 -6 -169 -14 -172 -17 -4 -3 50 -9 119 -12 132 -6 184 -19 130 -33 -16 -4 -264 -4 -552 -1 l-523 7 0 -26 0 -26 522 6 c597 7 728 13 725 29 -1 9 169 14 668 18 369 3 708 9 755 13 125 10 173 17 166 24 -29 28 -1465 43 -1838 18z"></path><path id="pxbHGg2oo" d="M4613 4390 c-171 -3 -314 -8 -317 -11 -4 -3 103 -9 236 -13 134 -4 299 -11 368 -16 69 -5 277 -10 463 -10 l337 0 0 30 0 30 -387 -2 c-214 -1 -528 -5 -700 -8z"></path><path id="pPvjMuMSr" d="M0 4239 c0 -20 0 -20 398 -14 218 3 426 9 462 13 l65 6 -105 7 c-58 4 -266 7 -462 8 -356 1 -358 1 -358 -20z"></path><path id="p0DxQbvww" d="M3545 4250 c-242 -5 -629 -13 -860 -19 -231 -6 -631 -12 -890 -12 -442 -2 -944 -12 -845 -18 25 -1 53 -4 64 -6 10 -2 343 -6 741 -10 639 -5 865 -12 881 -28 2 -2 -226 -7 -508 -11 -1077 -15 -1225 -18 -1293 -25 -48 -6 28 -9 245 -10 291 -1 462 -9 615 -28 l60 -8 -85 -5 c-47 -3 -166 -2 -265 1 -241 10 -1006 11 -1228 3 l-177 -7 0 -94 0 -93 773 0 c775 0 1197 7 1161 20 -10 4 -150 10 -310 13 -161 4 -299 10 -308 13 -39 15 -6 29 70 31 43 1 147 4 229 6 113 3 160 8 190 21 26 11 89 20 180 27 77 5 155 12 173 15 33 5 45 24 15 24 -10 0 -23 4 -30 8 -6 4 329 7 745 7 561 0 840 4 1075 16 375 19 414 30 202 55 l-60 7 40 7 c22 4 294 10 605 13 379 4 627 11 754 22 105 8 191 17 193 19 14 13 -476 32 -1047 41 -206 3 -440 7 -520 9 -80 2 -343 0 -585 -4z"></path><path id="pqSV5bqTk" d="M4908 4053 c18 -2 45 -2 60 0 15 2 0 4 -33 4 -33 0 -45 -2 -27 -4z"></path><path id="p8U7exs3m" d="M3710 3991 c-98 -18 665 -30 920 -14 105 7 110 8 60 14 -70 9 -933 9 -980 0z"></path><path id="p9UeBfQ1T" d="M4825 3951 l-50 -6 64 -8 c35 -4 243 -7 462 -7 348 0 399 2 399 15 0 13 -52 15 -412 13 -227 0 -435 -4 -463 -7z"></path><path id="ppEa4OaMP" d="M3252 3932 c-49 -2 -80 -7 -77 -12 8 -13 835 -13 835 -1 0 5 -100 12 -223 16 -202 6 -281 6 -535 -3z"></path><path id="pZJzpqBDl" d="M1435 3790 c-184 -8 -373 -25 -383 -35 -3 -3 48 -5 114 -5 65 0 148 -5 184 -11 35 -5 206 -14 380 -19 173 -6 360 -15 415 -22 69 -8 341 -12 885 -12 795 -1 980 4 980 29 0 17 -27 23 -136 32 l-89 8 100 11 c98 11 96 11 -150 14 -137 2 -263 4 -280 5 -96 7 -1862 11 -2020 5z"></path><path id="pLbZk57vy" d="M5105 3788 c-187 -5 -349 -13 -360 -17 -11 -5 132 -11 330 -15 193 -3 412 -9 488 -12 l137 -6 0 31 0 31 -127 -2 c-71 -1 -281 -5 -468 -10z"></path><path id="p1BY4VCPGB" d="M0 3746 l0 -24 218 4 c230 4 421 21 387 35 -11 4 -152 8 -312 8 l-293 1 0 -24z"></path><path id="pGOOoaCJi" d="M478 3603 l-478 -3 0 -44 0 -43 713 -8 c649 -6 895 -5 1507 10 263 7 661 25 680 32 105 37 -1039 64 -2422 56z"></path><path id="p12vGmqawZ" d="M5345 3443 c-197 -13 -261 -25 -204 -37 47 -10 236 -26 397 -32 l162 -7 0 47 0 46 -72 -1 c-40 -1 -167 -8 -283 -16z"></path><path id="phYorK4LX" d="M2133 3293 c-130 -2 -233 -7 -233 -12 0 -5 84 -11 188 -13 349 -6 2171 -2 2178 5 4 4 4 10 1 14 -7 7 -1696 11 -2134 6z"></path><path id="pL5pfWTGS" d="M365 3261 c-77 -5 -92 -8 -66 -13 43 -10 833 -9 886 1 95 17 -548 27 -820 12z"></path><path id="pPlpEEfzF" d="M5497 3261 c-31 -3 -58 -10 -59 -16 -1 -14 63 -24 170 -24 92 -1 92 -1 92 24 0 25 -1 25 -72 23 -40 -1 -99 -4 -131 -7z"></path><path id="p1C40xyEtB" d="M2136 3173 c-1 -1 -130 -3 -287 -3 -157 -1 -291 -5 -298 -9 -23 -15 108 -19 549 -18 428 1 598 7 570 19 -13 7 -528 17 -534 11z"></path><path id="pch2x4Rn" d="M5620 3080 c0 -5 -13 -10 -30 -10 -20 0 -30 -5 -30 -15 0 -10 -10 -15 -30 -15 -16 0 -30 -4 -30 -10 0 -5 -18 -14 -40 -20 -22 -6 -40 -16 -40 -22 0 -5 -9 -8 -20 -5 -12 3 -20 0 -20 -8 0 -8 -14 -13 -40 -13 -54 -1 -83 -11 -77 -27 6 -13 0 -14 -340 -35 -177 -11 -235 -20 -240 -36 -4 -12 41 -24 93 -24 36 0 54 -17 33 -31 -8 -5 -33 -9 -56 -9 -28 0 -45 -5 -51 -16 -7 -12 -19 -15 -43 -12 -39 6 -79 -9 -79 -29 0 -8 -8 -13 -17 -12 -42 4 -63 -2 -63 -17 0 -11 -6 -15 -18 -12 -10 3 -23 0 -29 -7 -6 -7 -34 -15 -62 -19 -28 -4 -51 -12 -51 -18 0 -5 -8 -8 -18 -6 -11 3 -30 -1 -43 -8 -13 -7 -41 -13 -61 -14 -21 0 -38 -4 -38 -10 0 -5 -9 -10 -20 -10 -11 0 -20 -4 -20 -10 0 -5 -9 -10 -20 -10 -11 0 -20 -5 -20 -11 0 -6 -8 -9 -17 -6 -10 2 -29 -2 -43 -8 -14 -7 -41 -13 -60 -13 -19 0 -36 -6 -38 -11 -2 -6 -12 -11 -23 -11 -10 0 -19 -4 -19 -8 0 -14 -48 -32 -85 -32 -19 0 -35 -5 -35 -11 0 -6 -9 -9 -20 -6 -12 3 -20 0 -20 -8 0 -17 -23 -25 -76 -25 -31 0 -44 -4 -44 -14 0 -13 -24 -20 -115 -31 -22 -3 -41 -10 -43 -15 -2 -6 -12 -10 -23 -10 -10 0 -19 -4 -19 -10 0 -5 -9 -10 -20 -10 -11 0 -20 -4 -20 -9 0 -8 -51 -22 -95 -26 -32 -3 -65 -16 -65 -25 0 -5 -9 -12 -20 -15 -11 -3 -20 -12 -20 -19 0 -16 -54 -41 -69 -31 -6 3 -11 2 -11 -3 0 -6 -36 -13 -80 -17 -44 -4 -80 -11 -80 -16 0 -5 -17 -9 -37 -9 -21 -1 -49 -7 -63 -15 -14 -8 -42 -14 -62 -15 -21 0 -38 -4 -38 -9 0 -5 9 -7 20 -4 14 4 20 0 20 -10 0 -11 14 -18 48 -22 26 -3 53 -7 61 -8 8 -1 -219 -3 -505 -4 -487 -3 -790 -12 -1083 -33 -121 -9 -170 -23 -120 -34 78 -18 751 -54 1089 -58 102 -1 150 -4 108 -5 -57 -3 -78 -7 -78 -17 0 -15 -60 -27 -137 -28 -24 0 -43 -5 -43 -10 0 -5 -12 -8 -27 -7 -36 3 -113 -11 -113 -20 0 -11 -47 -31 -71 -31 -22 0 -49 -22 -49 -39 0 -6 21 -11 50 -11 28 0 50 -4 50 -10 0 -6 -66 -10 -177 -10 -276 0 -807 -20 -817 -30 -5 -5 -7 -13 -3 -16 3 -4 106 -8 229 -11 289 -5 308 -7 308 -37 l0 -24 -427 -6 c-236 -3 -573 -9 -750 -12 l-323 -6 0 -38 0 -37 83 -6 c45 -4 214 -10 375 -13 161 -4 295 -11 298 -16 6 -9 -33 -48 -48 -48 -4 0 -8 -7 -8 -15 0 -8 -9 -15 -20 -15 -30 0 -27 -40 3 -41 81 -5 -113 -18 -351 -25 -212 -5 -285 -10 -293 -20 -15 -18 6 -21 171 -29 144 -6 221 -17 205 -27 -17 -11 -131 -38 -159 -38 -15 0 -39 -6 -54 -14 -23 -12 -59 -17 -194 -26 -5 0 -8 -87 -8 -192 l0 -193 537 0 c296 0 665 -4 821 -8 l282 -9 0 36 0 35 60 7 60 7 0 38 0 39 -372 0 c-204 0 -369 2 -367 4 7 6 534 16 887 16 l332 0 0 30 c0 25 4 30 25 30 14 0 35 9 47 20 12 11 36 20 53 20 17 0 40 8 51 17 30 27 62 43 84 43 15 0 20 7 20 25 0 33 31 45 118 45 37 0 111 3 165 7 85 5 97 8 97 25 0 15 8 18 50 18 l50 0 0 40 0 40 -45 0 c-27 0 -47 -5 -52 -14 -6 -11 -67 -16 -278 -25 -407 -18 -887 -15 -1680 10 l-50 2 60 7 c67 9 963 28 1795 38 534 7 545 7 549 27 4 25 19 35 52 35 14 0 29 4 35 9 5 5 30 11 57 14 l47 5 0 -34 c0 -32 2 -34 35 -34 34 0 35 1 35 40 l0 40 70 0 70 0 0 35 c0 29 -4 35 -22 36 -13 1 -3 5 21 10 24 5 51 15 61 24 9 8 29 15 43 15 15 0 27 5 27 10 0 6 11 10 24 10 14 0 28 5 31 10 3 6 21 10 39 10 20 0 40 8 51 20 10 12 31 20 49 20 17 1 42 7 56 15 14 8 49 14 78 15 34 0 59 6 68 15 9 8 30 15 48 15 36 0 87 22 106 45 7 8 22 15 34 15 12 0 27 9 34 20 10 17 23 20 82 20 39 0 70 4 70 9 0 5 27 12 60 16 33 4 60 11 60 16 0 4 23 11 50 15 28 4 53 11 56 15 3 5 14 9 24 9 10 0 25 8 32 19 7 10 42 28 78 41 36 12 79 28 95 36 17 7 81 16 143 20 l112 7 0 32 c0 31 -1 32 -52 39 -29 3 -74 6 -99 6 -26 0 -62 3 -80 7 -42 9 250 31 429 32 74 1 122 5 122 11 0 6 11 10 23 10 35 0 47 37 47 145 l0 95 -187 2 c-104 1 -155 4 -114 5 53 3 82 9 102 23 15 11 42 20 61 20 18 0 57 3 86 6 l52 7 0 183 0 183 -77 4 -78 3 78 2 77 2 0 110 0 110 -40 0 c-22 0 -40 -4 -40 -10z m-3600 -1290 c0 -5 -7 -10 -15 -10 -8 0 -15 5 -15 10 0 6 7 10 15 10 8 0 15 -4 15 -10z"></path><path id="p48bHXKmH" d="M150 3060 c-80 -4 -146 -8 -147 -8 -2 -1 -3 -15 -3 -32 l0 -29 358 5 c511 8 787 20 846 39 35 11 93 15 199 15 83 0 148 2 146 4 -8 8 -1251 14 -1399 6z"></path><path id="pxVo0oI9P" d="M2023 2980 c93 -4 196 -4 230 0 38 4 -29 7 -168 7 l-230 0 168 -7z"></path><path id="p1HFV9sE0d" d="M652 2902 c-69 -1 -110 -6 -107 -12 7 -12 1437 -12 1475 -1 14 5 -49 10 -150 13 -184 5 -1025 6 -1218 0z"></path><path id="pjJ2XF57M" d="M3133 2882 c-197 -1 -313 -6 -313 -12 0 -18 836 -18 854 0 7 7 -26 10 -96 10 -59 0 -112 1 -120 3 -7 1 -154 1 -325 -1z"></path><path id="p1Hbep57sm" d="M2038 2784 c-4 -4 -56 -10 -115 -14 -71 -5 16 -7 252 -7 254 0 339 3 290 9 -95 12 -418 21 -427 12z"></path><path id="pUd4OGi7u" d="M2976 2741 c-5 -7 221 -19 359 -19 101 0 234 11 230 18 -7 12 -583 12 -589 1z"></path><path id="pUxiGElD8" d="M2863 2733 c15 -2 39 -2 55 0 15 2 2 4 -28 4 -30 0 -43 -2 -27 -4z"></path><path id="pjKrZlE94" d="M2065 2670 c-4 -7 63 -10 192 -11 109 -1 344 -2 523 -4 332 -3 410 0 410 16 0 13 -1117 12 -1125 -1z"></path><path id="paUh8h9hW" d="M400 2640 c-25 -4 130 -8 344 -8 214 -1 387 1 383 4 -9 9 -674 13 -727 4z"></path><path id="px3thO4tN" d="M2955 2571 c-37 -15 85 -21 418 -21 284 0 327 2 327 15 0 13 -47 15 -362 14 -200 0 -372 -4 -383 -8z"></path><path id="p19nfa1pU2" d="M2388 2553 c23 -2 61 -2 85 0 23 2 4 4 -43 4 -47 0 -66 -2 -42 -4z"></path><path id="pjW2rlVZO" d="M1960 2470 c36 -12 542 -12 560 0 10 6 -88 9 -285 9 -166 -1 -289 -5 -275 -9z"></path><path id="p16BIlCChF" d="M0 1870 c0 -20 4 -20 728 -20 431 0 733 4 742 10 8 5 11 13 6 17 -4 4 -338 9 -742 11 -731 2 -734 2 -734 -18z"></path><path id="p1DdIbcohl" d="M1820 1821 c0 -5 -10 -12 -22 -14 -20 -4 -19 -4 5 -6 18 -1 27 4 27 14 0 8 -2 15 -5 15 -3 0 -5 -4 -5 -9z"></path><path id="pPoffyBWb" d="M0 553 l0 -243 79 0 c44 0 86 3 95 6 18 7 23 74 6 74 -5 0 -10 6 -10 14 0 7 -10 17 -22 22 -14 5 87 10 250 11 l272 3 0 35 c0 28 -4 35 -20 35 -13 0 -20 7 -20 19 0 17 14 19 178 25 239 9 242 10 242 52 l0 33 -77 4 -78 3 88 2 c50 1 87 6 87 12 0 6 11 10 25 10 14 0 45 9 67 20 23 11 48 20 55 20 8 0 13 13 13 34 0 33 -2 35 -42 40 -24 3 -301 7 -615 9 l-573 3 0 -243z"></path></g></g><g id="l5Q02VSE8tsZMlDtX6v2w8J" fill="rgb(130,96,170)" style="transform: none;"><g style="transform: none;"><path id="pdoSjEHfM" d="M2580 4539 c-378 -9 -379 -9 -350 -18 74 -22 1084 -19 1120 4 39 25 -201 29 -770 14z"></path><path id="prjlKg83O" d="M5123 4380 c-100 -3 -185 -8 -189 -12 -4 -5 82 -9 192 -9 109 -1 283 -3 387 -4 179 -3 187 -3 187 16 0 18 -9 19 -197 17 -109 -1 -280 -5 -380 -8z"></path><path id="p10TMVa4ag" d="M2540 4210 l-65 -5 90 -5 c50 -3 155 -3 235 0 118 5 130 7 65 10 -145 6 -259 6 -325 0z"></path><path id="pB02KMsEe" d="M4730 4201 c-100 -4 -164 -9 -150 -13 33 -10 568 -8 640 2 41 5 12 8 -110 9 -91 1 -174 3 -185 4 -11 2 -99 1 -195 -2z"></path><path id="piaUOqANW" d="M1730 4120 c-148 -8 -73 -11 205 -10 121 1 236 5 255 10 40 9 -278 10 -460 0z"></path><path id="pEvVCaLFZ" d="M15 4000 c-11 -5 260 -8 630 -7 431 0 588 3 465 8 -267 10 -1071 9 -1095 -1z"></path><path id="p1GXC6BraQ" d="M1623 3761 c-98 -16 -39 -21 263 -20 175 0 435 -3 576 -7 204 -6 263 -4 289 6 28 12 30 15 13 21 -24 9 -1084 9 -1141 0z"></path><path id="pAZbBLkDj" d="M78 3743 c46 -2 118 -2 160 0 42 1 5 3 -83 3 -88 0 -123 -2 -77 -3z"></path><path id="pRei2IHRg" d="M0 3549 l0 -32 188 7 c245 8 355 17 345 26 -19 18 -153 30 -336 30 l-197 0 0 -31z"></path><path id="p13I4PCNEO" d="M5477 2893 c-4 -3 -96 -8 -204 -9 -232 -4 -394 -11 -401 -19 -3 -3 12 -5 34 -6 90 -1 273 -8 474 -18 118 -6 239 -11 268 -11 l52 0 0 35 0 35 -108 0 c-60 0 -112 -3 -115 -7z"></path><path id="pPVqpugdh" d="M5551 2513 c-31 -3 -66 -12 -80 -22 -23 -16 -58 -19 -281 -25 -524 -13 -690 -19 -690 -27 0 -4 51 -10 113 -13 152 -9 801 -26 959 -26 l128 0 0 60 0 60 -47 -2 c-27 -1 -72 -3 -102 -5z"></path><path id="pCyzMUtWc" d="M5655 2240 c-4 -13 -15 -20 -31 -20 -13 0 -24 -4 -24 -10 0 -6 -43 -10 -107 -10 -100 0 -457 -21 -600 -36 -41 -4 -63 -11 -63 -19 0 -14 28 -19 205 -35 66 -6 149 -15 185 -19 l65 -8 -70 -3 c-38 -2 -84 -3 -102 -1 -17 1 -51 -7 -75 -17 -24 -11 -72 -30 -108 -42 -36 -13 -71 -31 -78 -41 -7 -11 -21 -19 -31 -19 -9 0 -21 -4 -27 -10 -5 -5 -31 -11 -57 -12 -27 -2 -47 -8 -47 -15 0 -6 -25 -14 -60 -18 -33 -4 -60 -10 -60 -15 0 -4 -30 -8 -67 -9 -55 -1 -71 -5 -85 -21 -9 -11 -25 -20 -36 -20 -11 0 -25 -7 -32 -15 -19 -23 -70 -45 -106 -45 -18 0 -39 -7 -48 -15 -9 -9 -34 -15 -68 -15 -29 -1 -64 -7 -78 -15 -14 -8 -39 -14 -56 -15 -18 0 -39 -8 -49 -20 -11 -12 -31 -20 -51 -20 -18 0 -36 -4 -39 -10 -3 -5 -17 -10 -31 -10 -13 0 -24 -4 -24 -10 0 -5 -12 -10 -27 -10 -14 0 -34 -7 -44 -16 -10 -9 -36 -18 -58 -21 -28 -4 -42 -11 -46 -24 -5 -14 -16 -19 -43 -19 -53 0 -87 -11 -70 -21 7 -5 24 -9 37 -9 46 0 14 -10 -64 -20 -58 -7 -81 -7 -86 1 -5 8 -14 5 -30 -10 -12 -11 -34 -21 -48 -21 -33 0 -48 -10 -52 -35 -4 -20 -15 -20 -484 -26 -849 -11 -1487 -21 -1522 -24 -19 -2 -191 -7 -382 -10 -190 -3 -398 -10 -461 -16 -63 -5 -126 -9 -140 -10 -52 -3 149 -25 250 -28 58 -1 173 -6 255 -11 518 -33 1567 -41 1978 -15 90 6 107 5 107 -7 0 -16 -115 -28 -263 -28 -65 0 -157 -26 -129 -37 20 -8 14 -33 -8 -33 -22 0 -54 -16 -84 -43 -11 -9 -34 -17 -51 -17 -17 0 -41 -9 -53 -20 -12 -11 -33 -20 -47 -20 -44 0 -74 -44 -37 -53 9 -3 -165 -5 -388 -6 -223 -1 -454 -3 -515 -6 -60 -2 -252 -7 -425 -11 -173 -3 -326 -7 -340 -9 -14 -1 -94 -3 -177 -3 -84 -1 -153 -6 -153 -11 0 -5 71 -12 157 -15 87 -4 201 -8 253 -11 52 -2 326 -7 608 -11 281 -4 512 -10 512 -14 0 -9 -129 -24 -137 -16 -3 2 -14 -4 -26 -15 -11 -10 -31 -19 -44 -19 -30 0 -20 -20 10 -21 21 0 21 -1 -3 -10 -17 -7 -106 -7 -280 0 -279 12 -1013 15 -1158 5 l-92 -7 0 -47 c0 -30 5 -50 13 -53 7 -3 265 -6 573 -6 309 -1 574 -6 590 -11 16 -4 22 -9 13 -9 -8 -1 -34 -10 -57 -21 -22 -11 -53 -20 -67 -20 -14 0 -25 -4 -25 -8 0 -5 -139 -13 -310 -18 -294 -9 -357 -16 -320 -39 6 -4 133 -11 283 -15 150 -5 286 -10 302 -10 l30 -2 -30 -10 c-20 -8 -174 -11 -460 -10 -237 1 -454 -1 -482 -4 -50 -5 -53 -7 -53 -34 l0 -29 47 14 c35 10 109 14 263 14 228 -1 374 -14 210 -20 -47 -1 -92 -3 -100 -5 -8 -1 -35 -2 -58 -3 -67 -2 -47 -24 34 -37 66 -11 63 -12 -96 -13 -91 -1 -195 -4 -232 -8 -65 -6 -68 -7 -68 -32 0 -25 3 -26 40 -23 43 4 100 -16 100 -35 0 -7 5 -13 12 -13 6 0 8 -3 5 -7 -4 -4 -35 -7 -70 -8 -34 -1 -68 -3 -74 -4 -10 -1 -13 -42 -13 -171 l0 -170 913 0 c901 1 1280 9 1301 30 5 5 20 10 33 10 17 0 23 6 23 24 0 22 4 23 95 30 111 8 125 12 125 37 0 15 7 19 35 19 33 0 35 2 35 34 0 42 12 46 133 46 l87 0 0 30 c0 25 4 30 25 30 17 0 25 5 25 18 0 15 9 17 70 14 56 -3 70 -1 70 11 0 8 14 20 30 27 25 10 30 18 30 46 l0 34 -92 0 c-104 0 -168 8 -168 21 0 5 150 9 334 9 184 0 337 4 340 9 3 5 21 12 40 15 19 4 39 13 46 21 7 8 18 15 25 15 8 0 15 5 17 11 2 5 23 13 46 16 24 3 48 13 55 24 7 9 29 20 50 24 20 4 40 11 43 16 3 5 30 9 60 9 47 0 54 2 54 20 0 15 7 20 27 20 15 0 40 4 57 10 17 5 65 21 106 34 41 13 96 28 123 31 26 4 47 11 47 16 0 5 18 9 40 9 22 0 40 5 40 10 0 6 9 10 20 10 11 0 20 5 20 10 0 6 18 10 40 10 22 0 40 5 40 10 0 6 23 10 50 10 42 0 50 3 50 19 0 19 34 31 91 31 18 0 29 5 29 14 0 15 50 26 128 26 48 0 52 2 52 24 0 22 5 24 70 31 39 4 70 11 70 16 0 5 10 9 23 9 12 0 31 7 41 15 11 8 32 15 48 15 15 0 28 5 28 10 0 6 30 10 70 10 l70 0 0 30 c0 28 2 30 40 30 22 0 40 5 40 10 0 6 15 10 33 10 18 0 38 5 44 11 7 7 40 11 77 10 35 -1 67 3 71 9 3 5 24 10 46 10 21 0 39 5 39 10 0 6 11 10 25 10 l25 0 0 535 c0 522 0 535 -19 535 -11 0 -23 -9 -26 -20z m-2002 -717 c-13 -2 -35 -2 -50 0 -16 2 -5 4 22 4 28 0 40 -2 28 -4z m-683 -193 c0 -5 -9 -10 -21 -10 -11 0 -17 5 -14 10 3 6 13 10 21 10 8 0 14 -4 14 -10z m-620 -745 c0 -13 -30 -15 -209 -15 -228 0 -363 9 -301 21 19 3 142 7 273 8 205 1 237 -1 237 -14z m-1722 -112 c-10 -2 -28 -2 -40 0 -13 2 -5 4 17 4 22 1 32 -1 23 -4z"></path><path id="pWRrju2qx" d="M2820 2047 c0 -10 -4 -17 -10 -17 -5 0 -10 -5 -10 -12 0 -8 40 -9 153 -4 347 15 373 33 62 43 -177 6 -195 5 -195 -10z"></path><path id="pCzaRLR1U" d="M1685 1750 c-119 -5 -118 -5 94 -12 294 -11 1331 -10 1331 1 0 4 -34 11 -77 15 -88 7 -1171 5 -1348 -4z"></path><path id="p1Eh9zaD6b" d="M1533 1605 l-33 -23 28 -5 c31 -7 566 1 630 9 84 11 39 22 -110 28 -449 17 -480 16 -515 -9z"></path><path id="pSFVN8tIe" d="M0 1161 l0 -31 323 5 c335 5 379 8 462 29 l50 13 -40 5 c-22 3 -210 6 -417 7 l-378 2 0 -30z"></path></g></g><g id="l4r8UaLnjvJNYL7ZTAysdGF" fill="rgb(147,112,166)" style="transform: none;"><g style="transform: none;"><path id="pciOl8nRr" d="M5618 1883 c18 -2 45 -2 60 0 15 2 0 4 -33 4 -33 0 -45 -2 -27 -4z"></path><path id="pv5X7ax1a" d="M4865 1699 c-77 -3 -149 -8 -160 -10 -28 -4 289 -16 673 -24 l322 -8 0 27 0 26 -347 -2 c-192 -1 -411 -5 -488 -9z"></path><path id="pc2NNdGWA" d="M3874 1488 c6 -4 155 -7 331 -7 228 0 313 3 295 11 -29 11 -645 7 -626 -4z"></path><path id="p10NNwa0Ef" d="M1910 1390 c-268 -3 -427 -8 -400 -13 108 -19 1791 -7 1720 13 -29 7 -668 8 -1320 0z"></path><path id="pysAhYEc8" d="M3585 1250 c-44 -4 8 -7 140 -7 135 0 192 2 160 7 -58 10 -199 9 -300 0z"></path><path id="p9UP3qz95" d="M5670 1230 c0 -5 -3 -9 -7 -9 -25 4 -53 -2 -48 -11 4 -6 -9 -10 -32 -10 -22 0 -44 -5 -51 -12 -9 -9 -18 -9 -38 1 -27 12 -80 1 -113 -24 -10 -7 -15 -6 -18 3 -3 6 -16 12 -29 12 -17 0 -24 -6 -24 -20 0 -17 -7 -20 -42 -20 -24 0 -51 -7 -61 -14 -18 -14 -17 -14 2 -21 38 -12 22 -20 -46 -23 -37 -2 -71 -8 -74 -14 -4 -6 -12 -7 -18 -3 -7 3 -28 -3 -48 -15 -20 -11 -42 -19 -50 -16 -7 3 -16 0 -19 -7 -3 -8 -17 -11 -39 -9 -21 3 -35 0 -35 -7 0 -6 -16 -11 -35 -11 -19 0 -35 -4 -35 -10 0 -5 -13 -10 -30 -10 -30 0 -41 -14 -17 -23 6 -3 -9 -4 -35 -1 -28 2 -48 0 -48 -6 0 -6 -11 -10 -24 -10 -15 0 -26 -7 -29 -17 -4 -17 -5 -17 -6 0 -1 21 -17 22 -38 2 -8 -9 -28 -19 -44 -22 -20 -4 -29 -12 -29 -24 0 -11 -7 -19 -15 -19 -8 0 -15 5 -15 10 0 17 -35 11 -58 -10 -13 -12 -35 -20 -57 -20 -19 0 -35 -4 -35 -10 0 -5 -9 -10 -20 -10 -11 0 -20 -4 -20 -10 0 -5 -18 -10 -40 -10 -22 0 -40 -4 -40 -9 0 -5 -21 -12 -47 -16 -27 -3 -82 -18 -123 -31 -41 -13 -89 -29 -106 -34 -17 -6 -44 -10 -62 -10 -34 0 -52 -18 -31 -31 9 -6 3 -8 -21 -8 -19 1 -27 3 -17 6 9 2 17 8 17 13 0 4 -9 6 -20 3 -11 -3 -20 -9 -20 -14 0 -5 -8 -9 -18 -9 -10 0 -22 -4 -28 -10 -5 -5 -25 -11 -44 -12 -23 -2 -39 -10 -45 -23 -7 -14 -26 -22 -63 -28 -29 -5 -50 -13 -47 -18 6 -9 -14 -13 -45 -10 -13 2 -13 1 0 -8 12 -8 9 -12 -13 -20 -16 -6 -34 -11 -42 -11 -8 0 -16 -4 -20 -10 -3 -5 -164 -10 -408 -11 -221 -1 -418 -3 -437 -5 -19 -1 -86 -3 -147 -3 -192 -2 -125 -18 102 -26 176 -6 212 -10 198 -20 -15 -11 -15 -13 8 -20 13 -5 80 -11 149 -14 118 -6 123 -7 93 -20 -18 -7 -33 -20 -33 -27 0 -17 -61 -19 -77 -3 -13 13 -1747 4 -1863 -9 l-65 -8 40 -9 c22 -4 177 -4 345 0 168 5 319 8 335 8 524 0 1088 -6 1115 -12 29 -6 19 -9 -64 -18 -94 -11 -125 -21 -98 -30 26 -10 10 -21 -40 -27 -29 -3 -183 -8 -343 -12 -291 -5 -325 -8 -325 -24 0 -14 67 -19 335 -25 137 -3 251 -8 254 -11 2 -2 -3 -4 -12 -4 -10 0 -17 -8 -17 -19 0 -27 -16 -30 -169 -37 -141 -7 -172 -17 -124 -42 14 -8 21 -18 17 -22 -5 -5 -58 -11 -119 -14 -309 -16 -335 -19 -346 -32 -10 -12 299 -14 1985 -14 l1996 0 0 620 c0 544 -2 620 -15 620 -8 0 -15 -4 -15 -10z m-2942 -967 c-15 -2 -42 -2 -60 0 -18 2 -6 4 27 4 33 0 48 -2 33 -4z"></path><path id="p6hl3Sawe" d="M3980 1130 c-98 -5 -101 -5 -45 -11 105 -11 629 -10 645 1 11 7 -13 10 -80 11 -263 4 -425 4 -520 -1z"></path><path id="pQKf5Q9Lb" d="M2405 1011 c-53 -6 -45 -7 72 -15 72 -4 137 -5 143 -1 7 4 130 11 274 15 l261 7 -345 0 c-190 0 -372 -3 -405 -6z"></path><path id="pvzzz29WX" d="M2632 892 c-8 -5 -35 -8 -60 -6 l-47 3 45 -9 c70 -13 807 -13 793 1 -14 14 -712 25 -731 11z"></path><path id="pHInrLj9j" d="M2408 883 c23 -2 59 -2 80 0 20 2 1 4 -43 4 -44 0 -61 -2 -37 -4z"></path><path id="pNE0FXePj" d="M1008 783 c18 -2 45 -2 60 0 15 2 0 4 -33 4 -33 0 -45 -2 -27 -4z"></path><path id="p9PtifOWS" d="M1158 783 c12 -2 32 -2 45 0 12 2 2 4 -23 4 -25 0 -35 -2 -22 -4z"></path><path id="pG4vtx33y" d="M2450 710 c-230 -10 -60 -20 363 -20 278 0 427 3 427 10 0 11 9 11 -390 14 -157 1 -337 -1 -400 -4z"></path><path id="plZ01bISP" d="M1813 623 c-18 -2 -33 -8 -33 -14 0 -5 -9 -9 -20 -9 -13 0 -20 -7 -20 -18 0 -11 -10 -24 -22 -29 -26 -12 1066 -18 1153 -7 110 15 35 24 -198 25 -255 1 -343 9 -249 22 27 4 94 7 150 8 56 1 112 4 126 8 24 7 24 7 -9 14 -35 7 -821 7 -878 0z"></path></g></g></svg>