<svg width="431" height="395" viewBox="0 0 431 395" fill="none" xmlns="http://www.w3.org/2000/svg">
<path d="M276.695 176.905C276.695 176.905 271.651 196.949 270.552 201.482C269.453 206.015 200.249 209.585 190.912 212.331C181.575 215.077 157.11 231.28 154.239 236.497C151.367 241.715 160.704 237.87 167.295 234.3C173.886 230.73 185.969 242.813 192.011 243.912C198.053 245.011 204.918 232.275 213.98 230.816C223.042 229.357 287.029 233.202 291.148 232.104C295.267 231.006 304.055 190.042 304.055 190.042C304.055 190.042 280.941 176.672 276.695 176.905Z" fill="url(#paint0_linear_655_5)"/>
<path d="M308.078 95.8041C286.48 115.391 272.425 173.884 272.448 177.138C272.461 178.98 303.506 195.137 306.801 193.657C310.097 192.177 322.293 82.9121 308.078 95.8041Z" fill="url(#paint1_linear_655_5)"/>
<path d="M278.928 163.86H184.596V257.917H278.928V163.86Z" fill="url(#paint2_linear_655_5)"/>
<path d="M241.078 163.86H222.447V257.917H241.078V163.86Z" fill="url(#paint3_linear_655_5)"/>
<path d="M184.596 163.86H104.133V257.917H184.596V163.86Z" fill="url(#paint4_linear_655_5)"/>
<path d="M152.01 163.86H136.719V257.917H152.01V163.86Z" fill="url(#paint5_linear_655_5)"/>
<path d="M193.674 235.484H190.626V251.517H193.674V235.484Z" fill="#262227"/>
<path d="M195.037 235.484H194.051V251.517H195.037V235.484Z" fill="#262227"/>
<path d="M200.524 235.484H196.293V251.517H200.524V235.484Z" fill="#262227"/>
<path d="M203.782 235.484H203.393V251.517H203.782V235.484Z" fill="#262227"/>
<path d="M202.9 235.484H202.327V251.517H202.9V235.484Z" fill="#262227"/>
<path d="M201.658 235.484H200.763V251.517H201.658V235.484Z" fill="#262227"/>
<path d="M207.273 235.484H204.326V251.517H207.273V235.484Z" fill="#262227"/>
<path d="M209.162 235.484H207.962V251.517H209.162V235.484Z" fill="#262227"/>
<path d="M213.499 235.484H211.371V251.517H213.499V235.484Z" fill="#262227"/>
<path d="M92.176 394.837C93.095 304.88 93.073 295.251 92.635 289.069C92.274 283.966 16.58 283.329 11.136 288.47C7.247 292.143 2.433 304.766 0 394.836H92.176V394.837Z" fill="url(#paint6_linear_655_5)"/>
<path d="M47.8888 319.086C62.3138 315.523 77.8918 313.35 92.8928 315.004C92.9888 296.884 92.8738 292.458 92.6338 289.069C92.2728 283.966 16.5788 283.329 11.1348 288.47C8.32677 291.122 5.03777 298.445 2.50977 336.203C16.8778 328.723 32.2698 322.944 47.8888 319.086Z" fill="url(#paint7_linear_655_5)"/>
<path d="M91.7917 318.825C88.0117 354.941 68.4297 394.837 68.4297 394.837H92.1747C92.5897 354.196 92.8127 329.953 92.8927 315.014C92.4017 315.401 92.0237 316.607 91.7917 318.825Z" fill="url(#paint8_linear_655_5)"/>
<path d="M87.0956 139.138C87.0956 139.138 128.732 127.566 135.538 124.702C142.345 121.839 148.836 110.517 152.591 107.81C156.347 105.102 185.93 111.984 188.251 112.986C190.572 113.987 190.051 117.428 187.258 117.941C187.258 117.941 180.798 127.98 178.834 130.277C176.87 132.574 165.356 130.506 161.17 132.315C156.985 134.124 150.078 141.171 146.103 141.905C143.407 142.403 140.532 141.782 137.483 142.298C136.092 142.533 89.8455 168.451 89.8455 168.451C89.8455 168.451 85.304 145.738 87.0956 139.138Z" fill="url(#paint9_linear_655_5)"/>
<path d="M160.866 120.2L181.492 126.64C184.071 122.896 187.26 117.941 187.26 117.941C190.053 117.427 190.573 113.987 188.253 112.986C186.844 112.377 175.383 109.603 165.756 108.122C165.943 112.59 163.922 116.674 160.866 120.2Z" fill="url(#paint10_linear_655_5)"/>
<path d="M106.478 133.652C96.1362 136.625 87.0963 139.137 87.0963 139.137C85.3047 145.737 89.8465 168.449 89.8465 168.449C89.8465 168.449 99.4121 163.089 109.972 157.222C105.892 150.596 104.972 142.209 106.478 133.652Z" fill="url(#paint11_linear_655_5)"/>
<path d="M160.233 150.693C160.233 150.693 169.549 143.299 180 141.352C198.517 137.902 208.391 132.005 214.441 123.438C214.441 123.438 208.119 104.606 204.493 101.322C204.493 101.322 193.217 111.619 181.604 113.692C171.689 115.462 160.029 119.868 154.736 126.649C154.736 126.649 159.419 143.116 160.233 150.693Z" fill="url(#paint12_linear_655_5)"/>
<path d="M196.933 110.823C192.875 113.262 187.659 115.649 180.778 117.027C175.3 118.124 169.309 120.015 164.381 122.861C165.679 125.108 162.524 129.497 159.348 130.866C159.975 133.289 161.046 137.793 161.721 140.728C164.252 138.838 166.614 139.1 169.566 141.318C172.573 140.011 175.972 138.847 179.497 138.114C191.123 135.698 199.219 132.492 205.096 128.145C204.494 126.415 205.246 123.795 207.147 121.579C207.893 120.709 208.728 120.005 209.576 119.489C208.423 116.355 207.19 113.256 206.039 110.628C205.369 111.019 204.617 111.354 203.795 111.605C200.985 112.46 198.267 112.086 196.933 110.823Z" fill="url(#paint13_linear_655_5)"/>
<path d="M180.677 117.789C176.955 118.812 175.046 123.675 176.413 128.65C177.78 133.626 181.906 136.831 185.628 135.809C189.35 134.787 191.259 129.923 189.892 124.948C188.525 119.971 184.399 116.765 180.677 117.789Z" fill="url(#paint14_linear_655_5)"/>
<path d="M184.255 131.498C183.97 131.572 183.697 131.628 183.437 131.664L183.73 132.938C183.997 132.896 184.268 132.839 184.545 132.768C184.736 132.72 184.923 132.666 185.106 132.608L184.817 131.33C184.638 131.391 184.45 131.447 184.255 131.498Z" fill="url(#paint15_linear_655_5)"/>
<path d="M185.482 122.701L187.214 122.171C186.796 121.293 186.105 120.684 185.169 120.358C184.821 120.239 184.446 120.166 184.048 120.14L184.427 121.854C184.869 122.032 185.223 122.316 185.482 122.701Z" fill="url(#paint16_linear_655_5)"/>
<path d="M182.108 125.908L182.453 127.403C182.643 127.379 182.838 127.351 183.038 127.32C183.339 127.271 183.621 127.232 183.883 127.203L183.549 125.729C183.367 125.752 183.182 125.776 182.997 125.802C182.673 125.845 182.378 125.88 182.108 125.908Z" fill="url(#paint17_linear_655_5)"/>
<path d="M181.573 131.537C180.917 131.315 180.418 130.944 180.091 130.449L178.518 130.879C178.713 131.28 178.978 131.631 179.302 131.932C179.69 132.285 180.149 132.557 180.678 132.738C181.11 132.891 181.586 132.986 182.093 133.021L181.757 131.593C181.695 131.576 181.634 131.557 181.573 131.537Z" fill="url(#paint18_linear_655_5)"/>
<path d="M188.898 127.973C188.75 127.273 188.502 126.745 188.158 126.396C187.813 126.047 187.387 125.811 186.895 125.69C186.409 125.576 185.854 125.535 185.248 125.566L185.595 127.14C185.846 127.158 186.063 127.193 186.245 127.245C186.586 127.338 186.838 127.501 186.992 127.729C187.129 127.936 187.233 128.19 187.296 128.486C187.426 129.081 187.208 129.681 186.643 130.258C186.552 130.352 186.452 130.442 186.345 130.528L186.658 131.946C187.195 131.645 187.648 131.302 188.006 130.922C188.384 130.514 188.664 130.057 188.833 129.565C188.997 129.071 189.018 128.533 188.898 127.973Z" fill="url(#paint19_linear_655_5)"/>
<path d="M180.212 125.883C179.893 125.804 179.648 125.671 179.479 125.489C179.312 125.314 179.188 125.075 179.12 124.789C178.993 124.26 179.145 123.721 179.578 123.167C179.625 123.106 179.676 123.048 179.732 122.99L179.378 121.486C179.354 121.502 179.331 121.518 179.308 121.534C178.772 121.919 178.36 122.332 178.071 122.769C177.788 123.195 177.61 123.637 177.545 124.073C177.482 124.52 177.5 124.94 177.594 125.329C177.729 125.879 177.939 126.318 178.236 126.625C178.527 126.934 178.897 127.165 179.333 127.309C179.751 127.445 180.245 127.517 180.8 127.52L180.424 125.925C180.348 125.913 180.278 125.9 180.212 125.883Z" fill="url(#paint20_linear_655_5)"/>
<path d="M181.73 121.886C182.041 121.788 182.341 121.719 182.631 121.679L182.315 120.286C182.024 120.348 181.726 120.428 181.419 120.529C181.242 120.585 181.072 120.646 180.908 120.707L181.222 122.066C181.382 122.003 181.551 121.943 181.73 121.886Z" fill="url(#paint21_linear_655_5)"/>
<path d="M182.453 127.403L182.108 125.908L181.222 122.065L180.909 120.707L180.628 119.489L179.956 119.711L179.03 120.017L179.376 121.485L179.731 122.99L180.422 125.925L180.798 127.52L181.758 131.593L182.094 133.021L182.437 134.476L183.481 134.216L183.996 134.088L183.73 132.938L183.436 131.663L182.453 127.403Z" fill="url(#paint22_linear_655_5)"/>
<path d="M185.596 127.141L185.248 125.567L184.426 121.854L184.047 120.14L183.68 118.481L182.03 119.027L182.316 120.286L182.631 121.679L183.547 125.729L183.881 127.203L184.816 131.33L185.105 132.608L185.363 133.748L185.963 133.599L186.97 133.348L186.66 131.947L186.346 130.529L185.596 127.141Z" fill="url(#paint23_linear_655_5)"/>
<path d="M157.251 152.63C157.251 152.63 165.023 143.626 174.927 139.763C192.475 132.918 201.073 125.282 205.419 115.735C205.419 115.735 195.694 98.415 191.518 95.8655C191.518 95.8655 182.363 108.085 171.341 112.289C161.93 115.879 151.296 122.384 147.362 130.033C147.362 130.033 155.037 145.338 157.251 152.63Z" fill="url(#paint24_linear_655_5)"/>
<path d="M185.864 106.611C182.332 109.764 177.654 113.083 171.151 115.721C165.974 117.822 160.44 120.796 156.131 124.513C157.825 126.478 155.545 131.379 152.679 133.316C153.747 135.579 155.64 139.804 156.851 142.561C158.984 140.232 161.354 140.049 164.669 141.677C167.38 139.831 170.501 138.054 173.828 136.677C184.799 132.133 192.154 127.473 197.116 122.106C196.203 120.518 196.451 117.804 197.905 115.272C198.475 114.278 199.165 113.43 199.902 112.765C198.184 109.901 196.394 107.086 194.774 104.72C194.189 105.229 193.511 105.7 192.752 106.098C190.15 107.463 187.411 107.603 185.864 106.611Z" fill="url(#paint25_linear_655_5)"/>
<path d="M171.195 116.487C167.729 118.186 166.76 123.32 169.033 127.954C171.305 132.588 175.956 134.966 179.422 133.267C182.888 131.568 183.856 126.434 181.584 121.8C179.312 117.166 174.661 114.788 171.195 116.487Z" fill="url(#paint26_linear_655_5)"/>
<path d="M177.267 129.289C177.002 129.416 176.744 129.521 176.494 129.604L177.02 130.801C177.274 130.71 177.531 130.604 177.789 130.483C177.968 130.4 178.141 130.312 178.31 130.221L177.787 129.02C177.624 129.111 177.451 129.202 177.267 129.289Z" fill="url(#paint27_linear_655_5)"/>
<path d="M176.83 120.417L178.433 119.573C177.859 118.788 177.066 118.319 176.085 118.174C175.72 118.122 175.339 118.12 174.942 118.168L175.635 119.781C176.104 119.874 176.503 120.087 176.83 120.417Z" fill="url(#paint28_linear_655_5)"/>
<path d="M174.114 124.197L174.733 125.603C174.915 125.543 175.101 125.481 175.29 125.413C175.578 125.309 175.848 125.219 176.099 125.14L175.496 123.754C175.322 123.811 175.145 123.869 174.967 123.928C174.658 124.031 174.374 124.12 174.114 124.197Z" fill="url(#paint29_linear_655_5)"/>
<path d="M174.64 129.826C173.955 129.731 173.395 129.461 172.981 129.035L171.516 129.751C171.781 130.108 172.108 130.404 172.482 130.638C172.929 130.914 173.432 131.094 173.985 131.174C174.438 131.243 174.922 131.249 175.428 131.188L174.831 129.847C174.767 129.842 174.703 129.836 174.64 129.826Z" fill="url(#paint30_linear_655_5)"/>
<path d="M181.172 124.958C180.896 124.299 180.554 123.826 180.15 123.547C179.747 123.269 179.284 123.116 178.777 123.09C178.28 123.068 177.727 123.131 177.136 123.276L177.772 124.757C178.021 124.729 178.241 124.722 178.429 124.739C178.782 124.766 179.06 124.879 179.253 125.074C179.426 125.252 179.575 125.482 179.694 125.76C179.932 126.322 179.83 126.951 179.382 127.623C179.311 127.733 179.23 127.839 179.141 127.945L179.713 129.279C180.184 128.883 180.566 128.461 180.845 128.021C181.141 127.55 181.331 127.049 181.404 126.533C181.474 126.02 181.394 125.486 181.172 124.958Z" fill="url(#paint31_linear_655_5)"/>
<path d="M172.248 124.527C171.92 124.508 171.654 124.422 171.454 124.277C171.257 124.137 171.091 123.926 170.97 123.657C170.748 123.161 170.797 122.603 171.118 121.977C171.153 121.908 171.193 121.841 171.236 121.774L170.607 120.362C170.587 120.382 170.567 120.403 170.547 120.423C170.092 120.901 169.765 121.384 169.562 121.866C169.363 122.338 169.271 122.805 169.288 123.246C169.31 123.696 169.405 124.106 169.571 124.471C169.805 124.987 170.094 125.379 170.444 125.625C170.787 125.875 171.194 126.032 171.649 126.093C172.084 126.148 172.583 126.127 173.129 126.026L172.462 124.529C172.388 124.532 172.316 124.531 172.248 124.527Z" fill="url(#paint32_linear_655_5)"/>
<path d="M172.993 120.317C173.279 120.164 173.562 120.039 173.839 119.946L173.269 118.635C172.995 118.751 172.716 118.886 172.433 119.04C172.27 119.13 172.114 119.22 171.965 119.312L172.526 120.588C172.673 120.497 172.828 120.406 172.993 120.317Z" fill="url(#paint33_linear_655_5)"/>
<path d="M174.734 125.602L174.115 124.198L172.528 120.589L171.966 119.313L171.463 118.168L170.844 118.512L169.991 118.985L170.606 120.364L171.235 121.775L172.462 124.53L173.129 126.027L174.831 129.848L175.429 131.188L176.038 132.555L177.015 132.105L177.496 131.883L177.021 130.802L176.495 129.605L174.734 125.602Z" fill="url(#paint34_linear_655_5)"/>
<path d="M177.772 124.757L177.137 123.277L175.636 119.783L174.943 118.17L174.273 116.608L172.755 117.451L173.27 118.636L173.84 119.946L175.497 123.754L176.1 125.139L177.788 129.02L178.31 130.221L178.777 131.293L179.338 131.034L180.281 130.6L179.714 129.281L179.141 127.946L177.772 124.757Z" fill="url(#paint35_linear_655_5)"/>
<path d="M98.6138 52.0657C98.7198 51.7467 101.823 59.9677 101.851 61.3247C101.891 63.3187 98.8398 64.1857 97.9368 64.4107C97.0338 64.6367 98.3888 52.7437 98.6138 52.0657Z" fill="url(#paint36_linear_655_5)"/>
<path d="M66.1774 120.786C67.8264 120.572 65.9634 109.489 65.9344 104.996C65.8784 96.049 69.6514 83.366 73.0204 80.444C75.4174 78.364 85.9984 84.738 89.3554 83.869C92.5544 83.041 98.7094 66.401 99.3294 63.62C99.7854 61.573 99.0654 53.119 99.5174 51.764C99.9694 50.409 103.292 47.355 103.883 45.441C104.071 44.831 104.824 34.601 102.265 27.375C99.7064 20.148 79.0054 8.63098 63.0844 12.922C46.4174 17.414 40.8344 65.063 40.8794 67.777C40.9874 74.326 37.1994 81.796 33.0764 89.477C29.2004 96.695 58.8374 121.739 66.1774 120.786Z" fill="url(#paint37_linear_655_5)"/>
<path d="M74.092 52.0462C78.533 49.0162 81.179 53.4662 81.375 54.6992L84.424 39.9072C84.424 39.9072 43.965 43.2582 44.023 44.5942C44.39 52.9772 41.802 58.8862 43.046 63.8782C43.046 63.8782 51.674 68.6182 57.856 72.4632C67.901 78.7122 67.252 89.0772 66.364 99.0182C67.44 91.1722 70.355 82.7552 73.02 80.4432C74.467 79.1872 78.897 81.0122 82.919 82.4652C82.919 82.4652 69.858 75.6252 73.523 63.4782C73.754 62.7152 68.551 55.8272 74.092 52.0462Z" fill="url(#paint38_linear_655_5)"/>
<path d="M66.1758 100.547V100.548L66.1768 100.543L66.1758 100.547Z" fill="url(#paint39_linear_655_5)"/>
<path d="M81.6761 56.5063C81.6761 56.5063 83.2571 57.1833 83.4451 57.1463C83.6331 57.1083 83.8591 51.9523 85.3271 49.3933C86.7951 46.8343 93.1931 44.1243 94.7371 43.0323C96.2801 41.9413 98.0491 34.6013 98.8391 33.4343C99.6291 32.2673 103.109 31.6493 103.583 31.2983C108.824 27.4193 104.453 14.1053 78.0641 9.31625C50.7401 4.35725 45.4461 27.9373 43.3731 35.9613C39.8731 49.5073 39.7381 68.0623 40.8781 67.7773C46.3611 66.4063 58.6561 73.4143 59.4051 73.5223C62.5391 73.9743 81.7141 55.9423 81.6761 56.5063Z" fill="url(#paint40_linear_655_5)"/>
<path d="M81.6767 56.5061C81.6767 56.5061 82.0337 51.3671 79.2307 49.6181C75.6877 47.4071 70.9927 51.1011 71.5387 57.9061C72.0847 64.7111 75.9557 66.6681 77.5937 65.8781C79.2307 65.0881 81.2787 61.7071 81.6767 56.5061Z" fill="url(#paint41_linear_655_5)"/>
<path d="M33.0246 83.3212C29.6526 84.3512 17.0076 94.7902 12.6476 127.857C8.28757 160.923 15.3696 215.753 13.5546 238.462C11.7396 261.172 2.96957 285.064 2.36457 290.508C1.75957 295.952 66.3886 311.758 93.3976 295.995C99.9096 292.195 99.9556 202.665 91.9826 160.087C88.9636 143.968 81.9006 122.691 68.7136 108.051C55.8726 93.7962 38.8926 81.5282 33.0246 83.3212Z" fill="url(#paint42_linear_655_5)"/>
<path d="M83.9211 241.635C87.6521 243.214 132.278 244.437 147.4 244.034C162.522 243.631 163.58 239.8 169.024 240.556C174.468 241.312 186.515 245.244 191.455 245.748C196.395 246.252 202.948 245.546 204.863 247.764C206.778 249.982 204.863 253.208 200.528 253.813C196.193 254.418 184.6 253.813 184.6 253.813C184.6 253.813 195.086 257.918 200.227 257.918C205.368 257.918 209.43 257.918 209.43 257.918C209.43 257.918 208.843 264.089 203.702 264.089C198.561 264.089 190.446 263.513 188.631 264.319C186.816 265.125 174.87 272.358 168.96 272.463C165.628 272.522 149.201 264.297 146.58 264.297C143.959 264.297 73.0011 277.1 60.4491 274.126C48.8241 271.371 43.0081 211.449 42.7061 208.425C42.7061 208.425 71.0341 202.822 79.9561 205.206C79.9561 205.206 80.8321 240.328 83.9211 241.635Z" fill="url(#paint43_linear_655_5)"/>
<path d="M177.321 266.621C173.582 268.915 169.524 272.433 166.721 272.001C167.692 272.298 168.47 272.472 168.96 272.463C174.87 272.358 186.816 265.125 188.631 264.319C188.85 264.222 189.164 264.146 189.549 264.085C184.596 264.653 180.832 264.466 177.321 266.621Z" fill="url(#paint44_linear_655_5)"/>
<path d="M81.1641 227.947C80.2651 217.608 79.9561 205.206 79.9561 205.206C71.0341 202.822 42.7061 208.425 42.7061 208.425C42.8581 209.945 44.4031 225.84 47.3791 241.626C56.7421 234.186 68.8351 229.678 81.1641 227.947Z" fill="url(#paint45_linear_655_5)"/>
<path d="M36.2357 220.312C37.6347 223.111 75.6507 219.379 88.0117 213.082C88.0117 213.082 84.6097 161.773 79.6637 145.914C74.7177 130.055 62.8127 115.128 49.6407 115.362C36.4687 115.595 27.3737 137.052 28.7727 159.208C30.1717 181.364 34.8367 217.513 36.2357 220.312Z" fill="url(#paint46_linear_655_5)"/>
<path d="M138.714 124.173C135.963 122.438 134.062 115.222 140.764 110.284C147.466 105.346 154.147 105.28 157.408 103.979C161.332 102.414 165.805 98.6397 167.99 99.2167C170.327 99.8337 171.429 104.155 166.932 107.771C162.435 111.387 156.35 112.18 154.234 116.501C152.117 120.822 146.121 128.847 138.714 124.173Z" fill="url(#paint47_linear_655_5)"/>
<path d="M399.623 287.715H283.029V394.837H399.623V287.715Z" fill="url(#paint48_linear_655_5)"/>
<path d="M399.622 340.16V287.715H283.029V320.618C300.941 315.014 388.47 320.519 399.622 340.16Z" fill="url(#paint49_linear_655_5)"/>
<path d="M338.908 394.837C338.908 394.837 332.083 360.613 327.838 330.684C327.591 328.941 331.999 388.966 308.281 394.837H338.908Z" fill="url(#paint50_linear_655_5)"/>
<path d="M361.314 79.6899C348.589 80.0729 328.301 81.6869 312.432 92.1849C294.582 103.994 289.501 141.479 290.6 164.547C291.533 184.136 284.009 248.855 280.347 264.508C277.893 275 271.651 292.726 284.741 301.307C301.218 312.109 379.58 318.125 400.947 303.028C409.601 296.913 411.981 259.748 413.629 215.809C415.277 171.87 432.872 138.456 425.288 117.5C416.894 94.3039 374.128 79.3039 361.314 79.6899Z" fill="url(#paint51_linear_655_5)"/>
<path d="M311.461 28.1491C311.461 28.1491 310.65 30.8141 314.531 31.9151C318.412 33.0161 326.638 28.2071 332.084 31.1911C332.084 31.1911 324.6 25.3701 321.737 25.3691C317.934 25.3681 311.461 28.1491 311.461 28.1491Z" fill="url(#paint52_linear_655_5)"/>
<path d="M336.332 90.6707C336.619 84.9617 337.607 65.7657 337.452 57.8877L371.747 51.5537C371.747 51.5537 372.088 75.0067 372.492 81.1807C372.937 88.0047 335.96 98.0737 336.332 90.6707Z" fill="url(#paint53_linear_655_5)"/>
<path d="M370.511 56.8834C369.606 59.8804 367.479 67.0444 363.989 71.3414C359.111 77.3444 338.534 81.5234 330.346 78.8974C322.158 76.2714 323.945 51.9584 324.476 45.3754C325.236 35.9494 324.476 33.4804 326.793 26.2194C329.11 18.9584 337.993 1.81137 361.783 6.90937C385.573 12.0064 372.649 49.7994 370.511 56.8834Z" fill="url(#paint54_linear_655_5)"/>
<path d="M365.788 40.6774C368.584 34.9574 371.554 32.4564 372.626 26.4224C373.163 23.3984 373.627 20.2554 373.996 17.0754C372.004 12.1184 368.262 8.2964 361.784 6.9084C337.994 1.8104 329.111 18.9574 326.794 26.2184C324.477 33.4794 325.236 35.9484 324.477 45.3744C324.253 48.1604 323.806 54.1204 323.982 60.2684C325.083 48.9664 356.212 60.2674 365.788 40.6774Z" fill="url(#paint55_linear_655_5)"/>
<path d="M370.131 51.8514C370.131 51.8514 365.683 51.5534 365.336 51.5534C364.989 51.5534 367.653 44.9884 367.113 39.9674C366.572 34.9464 363.328 32.8614 363.405 29.6944C363.482 26.5274 364.255 23.5154 364.564 22.9744C364.873 22.4334 357.206 29.5534 349.174 25.6774C340.369 21.4294 330.428 20.3084 328.961 21.0814C327.494 21.8534 332.871 5.46636 349.941 4.20336C367.655 2.89236 377.232 9.53436 378.777 23.6694C380.172 36.4314 375.804 46.5324 375.804 46.5324C373.69 46.7914 370.459 51.2894 370.131 51.8514Z" fill="url(#paint56_linear_655_5)"/>
<path d="M326.252 21.8148C326.252 21.8148 313.43 27.0478 311.46 28.1488C311.46 28.1488 320.272 24.8468 327.642 29.8868C335.012 34.9268 337.239 41.7408 345.407 43.8948C353.575 46.0488 366.355 40.4378 366.355 40.4378C366.355 40.4378 363.347 14.2648 326.252 21.8148Z" fill="url(#paint57_linear_655_5)"/>
<path d="M326.252 21.8153C329.573 21.3523 341.546 21.2743 349.656 29.4773C355.441 35.3283 369.662 44.3873 377.976 44.3873C379.66 44.3873 390.711 13.1263 369.509 2.88831C353.083 -5.04269 331.891 4.04031 326.252 21.8153Z" fill="url(#paint58_linear_655_5)"/>
<path d="M373.409 46.1729C374.548 45.0749 376.845 43.2879 379.317 43.9059C382.735 44.7599 380.862 51.0119 377.849 54.1789C374.837 57.3459 369.97 60.8219 369.198 58.1179C368.426 55.4149 370.861 48.6289 373.409 46.1729Z" fill="url(#paint59_linear_655_5)"/>
<path d="M423.24 191.734C423.24 191.734 414.909 246.383 409.188 250.502C403.467 254.621 298.929 242.102 292.109 243.978C285.747 245.729 278.927 258.603 275.517 260.501C273.229 261.774 267.667 260.526 267.667 260.526C267.667 260.526 262.996 264.589 260.664 264.817C257.506 265.126 255.584 262.929 255.584 262.929C255.584 262.929 249.474 265.538 246.361 264.623C244.868 264.184 242.974 261.9 242.974 261.9C242.974 261.9 236.915 264.408 234.255 264.555C231.349 264.715 229.527 262.089 230.949 260.047C232.241 258.193 241.761 250.889 245.061 247.782C252.775 240.518 259.409 230.068 260.233 228.603C261.057 227.138 255.903 230.548 251.235 231.464C246.566 232.379 242.951 232.517 240.662 231.006C237.823 229.132 238.762 225.788 240.433 225.193C242.334 224.516 249.899 222.865 253.256 220.707C258.809 217.137 265.332 215.558 271.144 217.572C276.557 219.447 283.456 220.844 287.118 220.936C289.022 220.984 314.48 222.113 337.968 220.982C359.651 219.938 379.554 216.634 380.037 216.503C381.044 216.228 382.685 193.566 383.051 191.278C383.054 191.277 417.382 189.812 423.24 191.734Z" fill="url(#paint60_linear_655_5)"/>
<path d="M404.609 208.969C409.697 209.994 414.786 211.593 419.435 213.978C421.675 202.006 423.241 191.734 423.241 191.734C417.383 189.812 383.055 191.276 383.055 191.276C382.827 192.701 382.105 202.025 381.349 208.924C389.1 208.28 396.963 207.428 404.609 208.969Z" fill="url(#paint61_linear_655_5)"/>
<path d="M418.781 108.716C425.121 112.338 427.359 119.372 429.556 147.383C431.753 175.394 427.359 197.913 427.359 197.913C427.359 197.913 407.542 194.206 382.237 199.834C380.439 199.951 381.869 156.052 387.991 133.423C394.291 110.136 408.104 102.616 418.781 108.716Z" fill="url(#paint62_linear_655_5)"/>
<path d="M280.665 254.804C280.665 254.804 278.929 257.026 276.695 256.708C274.462 256.39 272 254.873 268.329 255.296C264.658 255.719 263.247 254.449 260.847 253.461C258.447 252.473 254.212 253.885 251.812 255.861C249.412 257.838 242.976 261.9 242.976 261.9C242.976 261.9 244.87 264.184 246.363 264.623C249.475 265.538 255.586 262.929 255.586 262.929C255.586 262.929 257.508 265.126 260.666 264.817C262.998 264.589 267.669 260.526 267.669 260.526C267.669 260.526 273.231 261.775 275.519 260.501C276.813 259.781 278.6 257.479 280.665 254.804Z" fill="url(#paint63_linear_655_5)"/>
<defs>
<linearGradient id="paint0_linear_655_5" x1="153.705" y1="210.441" x2="304.056" y2="210.441" gradientUnits="userSpaceOnUse">
<stop offset="0.0207" stop-color="#FFB9A0"/>
<stop offset="1" stop-color="#FF946E"/>
</linearGradient>
<linearGradient id="paint1_linear_655_5" x1="331.644" y1="91.9762" x2="322.731" y2="109.801" gradientUnits="userSpaceOnUse">
<stop offset="0.0438" stop-color="#7B05C5"/>
<stop offset="1" stop-color="#530285"/>
</linearGradient>
<linearGradient id="paint2_linear_655_5" x1="184.596" y1="210.889" x2="278.928" y2="210.889" gradientUnits="userSpaceOnUse">
<stop stop-color="#6C368D"/>
<stop offset="1" stop-color="#8413CB"/>
</linearGradient>
<linearGradient id="paint3_linear_655_5" x1="232.956" y1="178.48" x2="231.474" y2="218.715" gradientUnits="userSpaceOnUse">
<stop stop-color="#8604D6"/>
<stop offset="1" stop-color="#510580"/>
</linearGradient>
<linearGradient id="paint4_linear_655_5" x1="104.133" y1="210.889" x2="184.596" y2="210.889" gradientUnits="userSpaceOnUse">
<stop stop-color="#911ED9"/>
<stop offset="1" stop-color="#7313AE"/>
</linearGradient>
<linearGradient id="paint5_linear_655_5" x1="145.677" y1="175.264" x2="144.194" y2="215.499" gradientUnits="userSpaceOnUse">
<stop stop-color="#6E02B1"/>
<stop offset="1" stop-color="#400465"/>
</linearGradient>
<linearGradient id="paint6_linear_655_5" x1="42.0831" y1="401.337" x2="55.0713" y2="303.078" gradientUnits="userSpaceOnUse">
<stop stop-color="#7E7D81"/>
<stop offset="1" stop-color="#A7A4AF"/>
</linearGradient>
<linearGradient id="paint7_linear_655_5" x1="50.0608" y1="346.645" x2="48.3667" y2="323.492" gradientUnits="userSpaceOnUse">
<stop stop-color="#7E7D81"/>
<stop offset="1" stop-color="#7E7D81"/>
</linearGradient>
<linearGradient id="paint8_linear_655_5" x1="78.4903" y1="413.566" x2="81.6334" y2="381.087" gradientUnits="userSpaceOnUse">
<stop stop-color="#39373E"/>
<stop offset="1" stop-color="#7E7D81"/>
</linearGradient>
<linearGradient id="paint9_linear_655_5" x1="182.739" y1="123.575" x2="90.3646" y2="145.306" gradientUnits="userSpaceOnUse">
<stop offset="0.0207" stop-color="#FFB9A0"/>
<stop offset="1" stop-color="#FF946E"/>
</linearGradient>
<linearGradient id="paint10_linear_655_5" x1="160.666" y1="108.724" x2="177.006" y2="117.968" gradientUnits="userSpaceOnUse">
<stop stop-color="#E36C42" stop-opacity="0"/>
<stop offset="0.9885" stop-color="#E36C42"/>
</linearGradient>
<linearGradient id="paint11_linear_655_5" x1="123.059" y1="145.017" x2="73.4573" y2="157.038" gradientUnits="userSpaceOnUse">
<stop stop-color="#E36C42" stop-opacity="0"/>
<stop offset="0.9885" stop-color="#E36C42"/>
</linearGradient>
<linearGradient id="paint12_linear_655_5" x1="213.858" y1="113.238" x2="165.037" y2="134.599" gradientUnits="userSpaceOnUse">
<stop stop-color="#00B7A7"/>
<stop offset="1" stop-color="#008A7E"/>
</linearGradient>
<linearGradient id="paint13_linear_655_5" x1="160.832" y1="135.811" x2="190.781" y2="123.496" gradientUnits="userSpaceOnUse">
<stop stop-color="#003631"/>
<stop offset="1" stop-color="#006569"/>
</linearGradient>
<linearGradient id="paint14_linear_655_5" x1="213.904" y1="113.344" x2="165.083" y2="134.705" gradientUnits="userSpaceOnUse">
<stop stop-color="#00B7A7"/>
<stop offset="1" stop-color="#008A7E"/>
</linearGradient>
<linearGradient id="paint15_linear_655_5" x1="162.928" y1="140.912" x2="192.879" y2="128.597" gradientUnits="userSpaceOnUse">
<stop stop-color="#003631"/>
<stop offset="1" stop-color="#006569"/>
</linearGradient>
<linearGradient id="paint16_linear_655_5" x1="159.263" y1="131.998" x2="189.214" y2="119.683" gradientUnits="userSpaceOnUse">
<stop stop-color="#003631"/>
<stop offset="1" stop-color="#006569"/>
</linearGradient>
<linearGradient id="paint17_linear_655_5" x1="160.781" y1="135.689" x2="190.731" y2="123.374" gradientUnits="userSpaceOnUse">
<stop stop-color="#003631"/>
<stop offset="1" stop-color="#006569"/>
</linearGradient>
<linearGradient id="paint18_linear_655_5" x1="162.29" y1="139.358" x2="192.24" y2="127.043" gradientUnits="userSpaceOnUse">
<stop stop-color="#003631"/>
<stop offset="1" stop-color="#006569"/>
</linearGradient>
<linearGradient id="paint19_linear_655_5" x1="161.983" y1="138.613" x2="191.933" y2="126.298" gradientUnits="userSpaceOnUse">
<stop stop-color="#003631"/>
<stop offset="1" stop-color="#006569"/>
</linearGradient>
<linearGradient id="paint20_linear_655_5" x1="159.639" y1="132.911" x2="189.589" y2="120.596" gradientUnits="userSpaceOnUse">
<stop stop-color="#003631"/>
<stop offset="1" stop-color="#006569"/>
</linearGradient>
<linearGradient id="paint21_linear_655_5" x1="158.719" y1="130.672" x2="188.667" y2="118.358" gradientUnits="userSpaceOnUse">
<stop stop-color="#003631"/>
<stop offset="1" stop-color="#006569"/>
</linearGradient>
<linearGradient id="paint22_linear_655_5" x1="160.742" y1="135.593" x2="190.692" y2="123.278" gradientUnits="userSpaceOnUse">
<stop stop-color="#003631"/>
<stop offset="1" stop-color="#006569"/>
</linearGradient>
<linearGradient id="paint23_linear_655_5" x1="160.869" y1="135.904" x2="190.819" y2="123.589" gradientUnits="userSpaceOnUse">
<stop stop-color="#003631"/>
<stop offset="1" stop-color="#006569"/>
</linearGradient>
<linearGradient id="paint24_linear_655_5" x1="202.943" y1="105.825" x2="158.965" y2="135.92" gradientUnits="userSpaceOnUse">
<stop stop-color="#00CEBC"/>
<stop offset="1" stop-color="#0098A1"/>
</linearGradient>
<linearGradient id="paint25_linear_655_5" x1="155.061" y1="137.897" x2="182.186" y2="120.209" gradientUnits="userSpaceOnUse">
<stop stop-color="#004D46"/>
<stop offset="1" stop-color="#008075"/>
</linearGradient>
<linearGradient id="paint26_linear_655_5" x1="203.008" y1="105.921" x2="159.031" y2="136.016" gradientUnits="userSpaceOnUse">
<stop stop-color="#00CEBC"/>
<stop offset="1" stop-color="#0098A1"/>
</linearGradient>
<linearGradient id="paint27_linear_655_5" x1="158.073" y1="142.517" x2="185.198" y2="124.829" gradientUnits="userSpaceOnUse">
<stop stop-color="#004D46"/>
<stop offset="1" stop-color="#008075"/>
</linearGradient>
<linearGradient id="paint28_linear_655_5" x1="152.807" y1="134.443" x2="179.933" y2="116.755" gradientUnits="userSpaceOnUse">
<stop stop-color="#004D46"/>
<stop offset="1" stop-color="#008075"/>
</linearGradient>
<linearGradient id="paint29_linear_655_5" x1="154.989" y1="137.786" x2="182.113" y2="120.1" gradientUnits="userSpaceOnUse">
<stop stop-color="#004D46"/>
<stop offset="1" stop-color="#008075"/>
</linearGradient>
<linearGradient id="paint30_linear_655_5" x1="157.155" y1="141.11" x2="184.281" y2="123.421" gradientUnits="userSpaceOnUse">
<stop stop-color="#004D46"/>
<stop offset="1" stop-color="#008075"/>
</linearGradient>
<linearGradient id="paint31_linear_655_5" x1="156.716" y1="140.434" x2="183.841" y2="122.747" gradientUnits="userSpaceOnUse">
<stop stop-color="#004D46"/>
<stop offset="1" stop-color="#008075"/>
</linearGradient>
<linearGradient id="paint32_linear_655_5" x1="153.349" y1="135.271" x2="180.473" y2="117.584" gradientUnits="userSpaceOnUse">
<stop stop-color="#004D46"/>
<stop offset="1" stop-color="#008075"/>
</linearGradient>
<linearGradient id="paint33_linear_655_5" x1="152.024" y1="133.244" x2="179.15" y2="115.556" gradientUnits="userSpaceOnUse">
<stop stop-color="#004D46"/>
<stop offset="1" stop-color="#008075"/>
</linearGradient>
<linearGradient id="paint34_linear_655_5" x1="154.934" y1="137.699" x2="182.056" y2="120.014" gradientUnits="userSpaceOnUse">
<stop stop-color="#004D46"/>
<stop offset="1" stop-color="#008075"/>
</linearGradient>
<linearGradient id="paint35_linear_655_5" x1="155.118" y1="137.98" x2="182.24" y2="120.294" gradientUnits="userSpaceOnUse">
<stop stop-color="#004D46"/>
<stop offset="1" stop-color="#008075"/>
</linearGradient>
<linearGradient id="paint36_linear_655_5" x1="105.134" y1="60.3642" x2="98.7063" y2="58.3732" gradientUnits="userSpaceOnUse">
<stop offset="0.0207" stop-color="#FFB9A0"/>
<stop offset="1" stop-color="#FF946E"/>
</linearGradient>
<linearGradient id="paint37_linear_655_5" x1="74.3599" y1="50.9971" x2="40.9271" y2="97.3716" gradientUnits="userSpaceOnUse">
<stop offset="0.0207" stop-color="#FFB9A0"/>
<stop offset="1" stop-color="#FF946E"/>
</linearGradient>
<linearGradient id="paint38_linear_655_5" x1="51.0192" y1="75.9636" x2="74.7368" y2="52.246" gradientUnits="userSpaceOnUse">
<stop stop-color="#E36C42" stop-opacity="0"/>
<stop offset="0.9885" stop-color="#E36C42"/>
</linearGradient>
<linearGradient id="paint39_linear_655_5" x1="73.8955" y1="94.802" x2="86.5576" y2="85.4103" gradientUnits="userSpaceOnUse">
<stop stop-color="#E36C42" stop-opacity="0"/>
<stop offset="0.9885" stop-color="#E36C42"/>
</linearGradient>
<linearGradient id="paint40_linear_655_5" x1="56.8925" y1="74.7644" x2="81.1137" y2="14.4585" gradientUnits="userSpaceOnUse">
<stop offset="0.0438" stop-color="#40391D"/>
<stop offset="1" stop-color="#8C6947"/>
</linearGradient>
<linearGradient id="paint41_linear_655_5" x1="78.7903" y1="49.156" x2="73.3979" y2="67.4901" gradientUnits="userSpaceOnUse">
<stop offset="0.4809" stop-color="#FFB9A0"/>
<stop offset="1" stop-color="#FF946E"/>
</linearGradient>
<linearGradient id="paint42_linear_655_5" x1="44.7569" y1="282.832" x2="68.9328" y2="94.2602" gradientUnits="userSpaceOnUse">
<stop stop-color="#280D3D"/>
<stop offset="0.9862" stop-color="#4D2F6B"/>
</linearGradient>
<linearGradient id="paint43_linear_655_5" x1="134.372" y1="268.883" x2="108.883" y2="203.499" gradientUnits="userSpaceOnUse">
<stop offset="0.0207" stop-color="#FFB9A0"/>
<stop offset="1" stop-color="#FF946E"/>
</linearGradient>
<linearGradient id="paint44_linear_655_5" x1="168.201" y1="263.4" x2="187.683" y2="272.506" gradientUnits="userSpaceOnUse">
<stop stop-color="#E36C42" stop-opacity="0"/>
<stop offset="0.9885" stop-color="#E36C42"/>
</linearGradient>
<linearGradient id="paint45_linear_655_5" x1="73.0377" y1="237.297" x2="61.6023" y2="220.356" gradientUnits="userSpaceOnUse">
<stop stop-color="#E36C42" stop-opacity="0"/>
<stop offset="0.9885" stop-color="#E36C42"/>
</linearGradient>
<linearGradient id="paint46_linear_655_5" x1="49.4929" y1="220.526" x2="81.4294" y2="74.2123" gradientUnits="userSpaceOnUse">
<stop stop-color="#280D3D"/>
<stop offset="0.9862" stop-color="#4D2F6B"/>
</linearGradient>
<linearGradient id="paint47_linear_655_5" x1="159.832" y1="76.1309" x2="97.523" y2="115.283" gradientUnits="userSpaceOnUse">
<stop offset="0.0207" stop-color="#FFB9A0"/>
<stop offset="1" stop-color="#FF946E"/>
</linearGradient>
<linearGradient id="paint48_linear_655_5" x1="349.819" y1="418.929" x2="337.96" y2="310.506" gradientUnits="userSpaceOnUse">
<stop stop-color="#00CEBC"/>
<stop offset="1" stop-color="#0098A1"/>
</linearGradient>
<linearGradient id="paint49_linear_655_5" x1="341.326" y1="355.531" x2="341.326" y2="336.896" gradientUnits="userSpaceOnUse">
<stop stop-color="#00CEBC"/>
<stop offset="1" stop-color="#0098A1"/>
</linearGradient>
<linearGradient id="paint50_linear_655_5" x1="322.088" y1="410.416" x2="324.609" y2="384.363" gradientUnits="userSpaceOnUse">
<stop stop-color="#00CEBC"/>
<stop offset="1" stop-color="#0098A1"/>
</linearGradient>
<linearGradient id="paint51_linear_655_5" x1="374.071" y1="90.2316" x2="330.004" y2="311.065" gradientUnits="userSpaceOnUse">
<stop offset="0.0438" stop-color="#8C13D7"/>
<stop offset="1" stop-color="#45076B"/>
</linearGradient>
<linearGradient id="paint52_linear_655_5" x1="311.39" y1="28.7252" x2="332.084" y2="28.7252" gradientUnits="userSpaceOnUse">
<stop offset="0.0438" stop-color="#BD2323"/>
<stop offset="1" stop-color="#A80939"/>
</linearGradient>
<linearGradient id="paint53_linear_655_5" x1="354.156" y1="88.4287" x2="354.651" y2="77.0404" gradientUnits="userSpaceOnUse">
<stop offset="0.0207" stop-color="#FFB9A0"/>
<stop offset="1" stop-color="#FF946E"/>
</linearGradient>
<linearGradient id="paint54_linear_655_5" x1="342.313" y1="72.5539" x2="351.721" y2="28.4864" gradientUnits="userSpaceOnUse">
<stop offset="0.0207" stop-color="#FFB9A0"/>
<stop offset="1" stop-color="#FF946E"/>
</linearGradient>
<linearGradient id="paint55_linear_655_5" x1="355.507" y1="57.1844" x2="344.919" y2="27.1139" gradientUnits="userSpaceOnUse">
<stop stop-color="#E36C42" stop-opacity="0"/>
<stop offset="0.9885" stop-color="#E36C42"/>
</linearGradient>
<linearGradient id="paint56_linear_655_5" x1="352.311" y1="34.4666" x2="349.155" y2="48.3924" gradientUnits="userSpaceOnUse">
<stop stop-color="#280D3D"/>
<stop offset="0.9862" stop-color="#4D2F6B"/>
</linearGradient>
<linearGradient id="paint57_linear_655_5" x1="347.689" y1="22.7602" x2="331.03" y2="44.6425" gradientUnits="userSpaceOnUse">
<stop offset="0.0438" stop-color="#6E02B1"/>
<stop offset="1" stop-color="#4C0876"/>
</linearGradient>
<linearGradient id="paint58_linear_655_5" x1="362.24" y1="7.89951" x2="352.357" y2="33.0289" gradientUnits="userSpaceOnUse">
<stop offset="0.0438" stop-color="#8505D5"/>
<stop offset="1" stop-color="#5C0891"/>
</linearGradient>
<linearGradient id="paint59_linear_655_5" x1="369.053" y1="51.4341" x2="381.149" y2="51.4341" gradientUnits="userSpaceOnUse">
<stop offset="0.0207" stop-color="#FFB9A0"/>
<stop offset="1" stop-color="#FF946E"/>
</linearGradient>
<linearGradient id="paint60_linear_655_5" x1="230.458" y1="227.795" x2="423.24" y2="227.795" gradientUnits="userSpaceOnUse">
<stop offset="0.0207" stop-color="#FFB9A0"/>
<stop offset="1" stop-color="#FF946E"/>
</linearGradient>
<linearGradient id="paint61_linear_655_5" x1="402.835" y1="212.742" x2="401.988" y2="193.259" gradientUnits="userSpaceOnUse">
<stop stop-color="#E36C42" stop-opacity="0"/>
<stop offset="0.9885" stop-color="#E36C42"/>
</linearGradient>
<linearGradient id="paint62_linear_655_5" x1="422.42" y1="91.3826" x2="412.517" y2="140.897" gradientUnits="userSpaceOnUse">
<stop offset="0.0438" stop-color="#910AE6"/>
<stop offset="1" stop-color="#500281"/>
</linearGradient>
<linearGradient id="paint63_linear_655_5" x1="259.365" y1="265.719" x2="263.176" y2="254.284" gradientUnits="userSpaceOnUse">
<stop offset="0.0207" stop-color="#FFB9A0"/>
<stop offset="1" stop-color="#FF946E"/>
</linearGradient>
</defs>
</svg>
