<svg width="1089" height="792" viewBox="0 0 1089 792" fill="none" xmlns="http://www.w3.org/2000/svg">
<path d="M1071.47 566.656C1128.57 668.837 1045.95 869.316 521.925 729.987C259.189 660.129 62.9336 817.499 22.492 707.654C-71.7092 451.791 312.998 155.816 526.926 362.452C722.468 551.327 967.546 380.684 1071.47 566.656Z" stroke="#E4E4E4" stroke-width="4" stroke-miterlimit="10" stroke-dasharray="32.09 32.09"/>
<path d="M1068.46 791.575H0C33.4385 544.524 259.85 353.429 534.232 353.429C808.595 353.429 1035.03 544.524 1068.46 791.575Z" fill="#F6F5F5"/>
<path d="M868.665 775.908L536.962 667.888C521.52 662.858 513.077 646.263 518.106 630.819L673.054 155.016C678.083 139.573 694.679 131.131 710.122 136.16L1041.83 244.181C1057.27 249.21 1065.71 265.806 1060.68 281.249L905.734 757.053C900.704 772.495 884.109 780.938 868.665 775.908Z" fill="#6E02B1"/>
<path d="M1029.26 263.79L710.216 159.891L559.29 623.344L878.336 727.243L1029.26 263.79Z" fill="#F6F5F5"/>
<path d="M1029.26 263.792C970.507 444.546 905.361 664.406 869.346 706.053C777.095 685.646 671.488 654.347 560.745 618.859L751.786 174.976L1029.26 263.792Z" fill="#E4E4E4"/>
<path d="M859.812 686.796C713.183 663.715 619.654 634.558 545.936 604.347C589.664 503.321 649.967 331.474 710.203 159.913L878.02 214.976L1026.74 274.505C970.537 454.624 916.814 620.415 859.812 686.796Z" fill="white"/>
<path d="M936.154 285.081L769.604 226.479L760.678 251.848L927.227 310.45L936.154 285.081Z" fill="#6E02B1"/>
<path d="M948.138 358.176L797.911 305.318L793.825 316.93L944.052 369.788L948.138 358.176Z" fill="#6E02B1"/>
<path d="M891.115 366.564L789.003 330.636L784.917 342.247L887.029 378.176L891.115 366.564Z" fill="#D3DFFF"/>
<path d="M750.349 289.35L714.785 276.837L702.272 312.401L737.836 324.915L750.349 289.35Z" fill="white" stroke="#6E02B1" stroke-width="6" stroke-miterlimit="10"/>
<path d="M717.555 288.196C717.282 292.793 713.547 311.202 724.049 309.135C726.47 308.658 729.191 306.198 731.29 304.957C735.064 302.725 738.839 300.495 742.613 298.263C750.162 293.801 757.71 289.339 765.259 284.876C767.193 283.733 762.267 277.68 759.838 279.116C753.129 283.082 746.418 287.049 739.709 291.015C736.354 292.999 732.999 294.981 729.644 296.965C727.316 298.341 721.359 303.286 718.656 303.016C719.883 303.906 721.111 304.796 722.338 305.685C723.048 306.796 723.083 300.572 723.093 300.406C723.262 297.567 723.431 294.727 723.6 291.887C723.738 289.541 717.762 284.72 717.555 288.196Z" fill="#EE6F57"/>
<path d="M898.872 413.502L775.163 369.975L771.077 381.586L894.786 425.114L898.872 413.502Z" fill="#6E02B1"/>
<path d="M916.481 448.151L766.255 395.293L762.169 406.905L912.396 459.763L916.481 448.151Z" fill="#D3DFFF"/>
<path d="M727.602 354.007L692.038 341.493L679.525 377.057L715.089 389.571L727.602 354.007Z" fill="white" stroke="#6E02B1" stroke-width="6" stroke-miterlimit="10"/>
<path d="M694.451 353.857C694.177 358.453 690.443 376.863 700.944 374.795C703.366 374.318 706.086 371.858 708.186 370.617C711.96 368.386 715.734 366.155 719.509 363.924C727.057 359.461 734.606 354.999 742.154 350.537C744.089 349.393 739.162 343.341 736.734 344.776C730.024 348.742 723.314 352.709 716.604 356.675C713.249 358.659 709.894 360.641 706.539 362.625C704.211 364.001 698.254 368.946 695.552 368.676C696.779 369.566 698.006 370.456 699.233 371.345C699.943 372.456 699.978 366.232 699.988 366.066C700.157 363.227 700.326 360.387 700.495 357.547C700.634 355.202 694.657 350.38 694.451 353.857Z" fill="#EE6F57"/>
<path d="M902.639 487.49L752.412 434.632L748.326 446.244L898.553 499.102L902.639 487.49Z" fill="#6E02B1"/>
<path d="M810.688 483.589L743.504 459.95L739.418 471.562L806.602 495.201L810.688 483.589Z" fill="#D3DFFF"/>
<path d="M704.851 418.664L669.287 406.15L656.774 441.715L692.338 454.228L704.851 418.664Z" fill="white" stroke="#6E02B1" stroke-width="6" stroke-miterlimit="10"/>
<path d="M672.035 419.135C671.761 423.731 668.026 442.141 678.528 440.073C680.95 439.596 683.67 437.136 685.77 435.895C689.544 433.664 693.318 431.433 697.093 429.202C704.641 424.74 712.19 420.278 719.738 415.815C721.673 414.671 716.746 408.619 714.318 410.054C707.608 414.02 700.898 417.987 694.188 421.954C690.834 423.937 687.479 425.92 684.124 427.903C681.795 429.28 675.838 434.224 673.136 433.955C674.363 434.844 675.59 435.734 676.817 436.623C677.528 437.734 677.563 431.511 677.573 431.345C677.742 428.505 677.91 425.665 678.079 422.826C678.218 420.48 672.241 415.659 672.035 419.135Z" fill="#EE6F57"/>
<path d="M879.888 552.146L729.661 499.288L725.575 510.9L875.802 563.758L879.888 552.146Z" fill="#6E02B1"/>
<path d="M839.427 566.362L720.754 524.606L716.668 536.218L835.342 577.974L839.427 566.362Z" fill="#D3DFFF"/>
<path d="M682.1 483.322L646.536 470.809L634.023 506.373L669.587 518.886L682.1 483.322Z" fill="white" stroke="#6E02B1" stroke-width="6" stroke-miterlimit="10"/>
<path d="M649.43 483.369C649.157 487.966 645.422 506.376 655.924 504.307C658.345 503.831 661.066 501.371 663.165 500.13C666.939 497.899 670.714 495.668 674.488 493.436C682.037 488.974 689.585 484.512 697.134 480.049C699.068 478.906 694.142 472.853 691.713 474.289C685.003 478.255 678.293 482.222 671.584 486.188C668.229 488.172 664.874 490.154 661.519 492.138C659.191 493.514 653.234 498.459 650.531 498.189C651.758 499.079 652.986 499.969 654.213 500.858C654.923 501.969 654.958 495.745 654.968 495.579C655.137 492.74 655.306 489.9 655.475 487.06C655.614 484.714 649.637 479.893 649.43 483.369Z" fill="#EE6F57"/>
<path d="M766.634 584.41L707.085 563.457L702.999 575.069L762.549 596.022L766.634 584.41Z" fill="#6E02B1"/>
<path d="M848.395 641.671L698.166 588.807L694.08 600.42C752.203 620.868 825.886 647.898 841.863 650.518C845.028 648.644 847.324 645.825 848.395 641.671Z" fill="#D3DFFF"/>
<path d="M660.021 547.664L624.457 535.15L611.944 570.715L647.508 583.228L660.021 547.664Z" fill="white" stroke="#6E02B1" stroke-width="6" stroke-miterlimit="10"/>
<path d="M627.026 547.04C626.753 551.637 623.018 570.046 633.519 567.978C635.941 567.501 638.662 565.041 640.761 563.801C644.535 561.569 648.309 559.338 652.084 557.107C659.632 552.645 667.181 548.183 674.73 543.72C676.664 542.577 671.738 536.524 669.309 537.959C662.599 541.926 655.889 545.892 649.18 549.859C645.825 551.842 642.47 553.825 639.115 555.809C636.786 557.185 630.829 562.13 628.127 561.86C629.354 562.749 630.582 563.639 631.809 564.529C632.519 565.64 632.554 559.416 632.564 559.25C632.733 556.41 632.901 553.57 633.07 550.731C633.209 548.386 627.232 543.564 627.026 547.04Z" fill="#EE6F57"/>
<path d="M946.781 216.79L935.132 252.561L791.417 205.759L803.066 169.989C804.924 164.285 808.922 159.878 813.874 157.346C814.493 157.032 815.116 156.752 815.76 156.513C820.292 154.709 825.461 154.428 830.457 156.055C834.204 157.276 838.08 157.589 841.805 157.088C843.425 156.866 845.009 156.5 846.557 155.989C851.655 154.287 856.207 150.992 859.448 146.355C862.753 141.623 867.45 138.292 872.674 136.614C877.687 135.018 883.187 134.945 888.439 136.655L897.408 139.576C902.66 141.286 907.062 144.584 910.175 148.827C913.409 153.259 915.243 158.716 915.128 164.488C915.017 170.144 916.756 175.487 919.874 179.865C920.824 181.19 921.889 182.419 923.068 183.552C925.783 186.15 929.101 188.179 932.848 189.4C937.844 191.027 941.855 194.297 944.457 198.423C947.816 203.695 948.869 210.379 946.781 216.79Z" fill="#EE6F57"/>
<path d="M952.514 238.797L943.854 265.388L776.814 210.99L785.474 184.399L797.136 188.197L791.417 205.759L935.132 252.561L940.851 234.999L952.514 238.797Z" fill="#E4E4E4"/>
<path d="M881.998 171.674C889.038 173.966 896.512 170.401 898.691 163.71C900.87 157.019 896.929 149.736 889.889 147.443C882.849 145.151 875.375 148.716 873.196 155.407C871.017 162.098 874.958 169.381 881.998 171.674Z" fill="white"/>
<path d="M192 188.209H196.683V68.9968C196.683 59.936 198.604 50.9639 202.335 42.5929C206.067 34.2218 211.536 26.6156 218.431 20.2087C225.327 13.8018 233.512 8.71951 242.521 5.25209C251.53 1.78468 261.186 6.94199e-06 270.937 1.43981e-10H542.746C552.497 -1.85115e-05 562.153 1.78462 571.162 5.25201C580.171 8.7194 588.356 13.8017 595.252 20.2086C602.147 26.6155 607.616 34.2216 611.348 42.5927C615.079 50.9637 617 59.9358 617 68.9965V723.003C617 732.064 615.079 741.036 611.348 749.407C607.616 757.778 602.147 765.384 595.252 771.791C588.357 778.198 580.171 783.281 571.162 786.748C562.153 790.215 552.498 792 542.747 792H270.937C251.244 792 232.357 784.731 218.432 771.792C204.506 758.852 196.683 741.303 196.683 723.004V273.066H192V188.209Z" fill="#3F3D56"/>
<path d="M267.941 17.9512H303.421C301.789 21.6683 301.167 25.7011 301.608 29.6945C302.048 33.6879 303.539 37.5193 305.949 40.8512C308.359 44.183 311.613 46.9131 315.426 48.8009C319.239 50.6886 323.493 51.6762 327.813 51.6765H483.529C487.849 51.6762 492.103 50.6887 495.916 48.8009C499.729 46.9131 502.983 44.1831 505.393 40.8512C507.803 37.5193 509.294 33.688 509.735 29.6945C510.176 25.7011 509.553 21.6682 507.921 17.9512H541.06C555.766 17.9512 569.871 23.3798 580.27 33.0427C590.669 42.7057 596.511 55.8115 596.511 69.4771V722.524C596.511 729.291 595.077 735.991 592.29 742.242C589.504 748.494 585.419 754.174 580.27 758.959C575.121 763.743 569.008 767.539 562.28 770.128C555.552 772.717 548.342 774.05 541.06 774.05H267.941C260.659 774.05 253.448 772.717 246.721 770.128C239.993 767.539 233.88 763.743 228.731 758.959C223.582 754.174 219.497 748.494 216.71 742.242C213.924 735.991 212.489 729.291 212.489 722.524V69.4771C212.489 62.7106 213.924 56.0104 216.71 49.759C219.497 43.5076 223.582 37.8274 228.731 33.0428C233.88 28.2582 239.993 24.4628 246.721 21.8734C253.448 19.284 260.659 17.9512 267.941 17.9512Z" fill="white"/>
<path d="M463.015 200.902H345.984V227.144H463.015V200.902Z" fill="#6E02B1"/>
<path d="M468.587 313.659H340.413V339.9H468.587V313.659Z" fill="#E5E5E5"/>
<path d="M547.536 370.029H261.465V396.27H547.536V370.029Z" fill="#E5E5E5"/>
<path d="M547.536 426.397H261.465V452.639H547.536V426.397Z" fill="#E5E5E5"/>
<path d="M404.645 679.101C449.919 679.101 486.621 644.997 486.621 602.928C486.621 560.859 449.919 526.755 404.645 526.755C359.37 526.755 322.668 560.859 322.668 602.928C322.668 644.997 359.37 679.101 404.645 679.101Z" fill="#6E02B1"/>
<path d="M396.832 635.083L372.298 605.768L386.566 595.456L398.182 609.336L437.43 570.839L450.554 582.393L396.832 635.083Z" fill="white"/>
</svg>
