<svg width="100" height="89" viewBox="0 0 100 89" fill="none" xmlns="http://www.w3.org/2000/svg">
<path d="M47.8498 88.2548L8.64453 70.2079V21.668L47.8498 35.3587V88.2548Z" fill="url(#paint0_linear_654_64)"/>
<path d="M47.6078 35.3592L8.67383 21.663L47.3931 10.4229L86.813 21.6686L47.6078 35.3592Z" fill="#4D1172"/>
<path d="M87.055 70.2079L47.8496 88.2548V35.3587L87.055 21.668V70.2079Z" fill="url(#paint1_linear_654_64)"/>
<path fill-rule="evenodd" clip-rule="evenodd" d="M9.5197 22.6688L0 10.8008L38.0539 21.6689L48.7447 36.3595L9.5197 22.6688Z" fill="url(#paint2_linear_654_64)"/>
<path fill-rule="evenodd" clip-rule="evenodd" d="M86.7415 21.6684L99.9275 8.9156L58.8705 0L47 10.4099L86.7415 21.6684Z" fill="url(#paint3_linear_654_64)"/>
<path opacity="0.75" d="M85.8439 22C85.8268 22 85.8097 21.9976 85.7927 21.9917L46.1054 11.2894C46.0241 11.2632 45.9804 11.178 46.0085 11.1005C46.0361 11.0231 46.1247 10.9813 46.2067 11.0081L85.8941 21.711C85.9754 21.7372 86.0196 21.8225 85.9915 21.8999C85.9694 21.9613 85.9092 22 85.8439 22Z" fill="url(#paint4_linear_654_64)"/>
<path d="M74.8282 75.2748L78.7783 77L76.8361 72.0848L72.7727 69.9997L74.8282 75.2748Z" fill="url(#paint5_linear_654_64)"/>
<path opacity="0.75" d="M86.1489 22C86.0903 22 86.0345 21.9666 86.0114 21.9117C85.9797 21.8393 86.0162 21.7566 86.0932 21.7272L98.7939 10.0112C98.8699 9.98009 98.9583 10.0163 98.9891 10.0888C99.0199 10.1612 98.9833 10.2439 98.9074 10.2734L86.2066 21.9893C86.1874 21.9966 86.1681 22 86.1489 22Z" fill="url(#paint6_linear_654_64)"/>
<path d="M64.7057 84.962L79.3388 76.8592L71.3112 67.8587C71.3112 67.8587 68.9768 65.5157 68.7594 62.7396C68.5419 59.9636 68.9481 57.6169 68.9481 57.6169C68.9481 57.6169 62.9035 60.2778 59.5937 59.7487C56.2838 59.2197 51.6336 57.6532 51.6336 57.6532C51.6336 57.6532 51.5977 70.3828 55.6316 74.9173C60.9868 80.9393 64.7057 84.962 64.7057 84.962Z" fill="url(#paint7_linear_654_64)"/>
<defs>
<linearGradient id="paint0_linear_654_64" x1="47.8498" y1="88.255" x2="47.8498" y2="21.6682" gradientUnits="userSpaceOnUse">
<stop stop-color="#6E02B1"/>
<stop offset="1" stop-color="#8C08DD"/>
</linearGradient>
<linearGradient id="paint1_linear_654_64" x1="87.055" y1="88.255" x2="87.055" y2="21.6682" gradientUnits="userSpaceOnUse">
<stop stop-color="#BE6BF2"/>
<stop offset="1" stop-color="#6E02B1"/>
</linearGradient>
<linearGradient id="paint2_linear_654_64" x1="33.1014" y1="28.5871" x2="33.7153" y2="21.0345" gradientUnits="userSpaceOnUse">
<stop stop-color="#6E02B1"/>
<stop offset="1" stop-color="#6E02B1"/>
</linearGradient>
<linearGradient id="paint3_linear_654_64" x1="61.9535" y1="3.92513" x2="61.1295" y2="17.076" gradientUnits="userSpaceOnUse">
<stop stop-color="#6E02B1"/>
<stop offset="1" stop-color="#460072"/>
</linearGradient>
<linearGradient id="paint4_linear_654_64" x1="46" y1="22" x2="86.0006" y2="22" gradientUnits="userSpaceOnUse">
<stop stop-color="white" stop-opacity="0.3"/>
<stop offset="1" stop-color="white"/>
</linearGradient>
<linearGradient id="paint5_linear_654_64" x1="73.5223" y1="71.9669" x2="73.9362" y2="76.3402" gradientUnits="userSpaceOnUse">
<stop stop-color="#6E02B1"/>
<stop offset="1" stop-color="#971EE2"/>
</linearGradient>
<linearGradient id="paint6_linear_654_64" x1="85.9999" y1="22.0002" x2="98.9997" y2="22.0002" gradientUnits="userSpaceOnUse">
<stop stop-color="white"/>
<stop offset="1" stop-color="white" stop-opacity="0.3"/>
</linearGradient>
<linearGradient id="paint7_linear_654_64" x1="88.0902" y1="79.4785" x2="69.769" y2="46.6008" gradientUnits="userSpaceOnUse">
<stop stop-color="#FF2BCA"/>
<stop offset="0.6725" stop-color="#6E02B1"/>
<stop offset="0.9972" stop-color="#6E02B1"/>
</linearGradient>
</defs>
</svg>
