<svg width="379" height="298" viewBox="0 0 379 298" fill="none" xmlns="http://www.w3.org/2000/svg">
<path d="M28.3218 274.108C36.8437 290.125 54.9303 297 54.9303 297C54.9303 297 59.2001 277.908 50.6782 261.892C42.1563 245.875 24.0697 239 24.0697 239C24.0697 239 19.7999 258.092 28.3218 274.108Z" fill="#2F2E41"/>
<path d="M33.9629 268.531C49.1507 277.861 55 296.394 55 296.394C55 296.394 36.225 299.799 21.0371 290.469C5.84932 281.139 0 262.606 0 262.606C0 262.606 18.775 259.201 33.9629 268.531Z" fill="#6E02B1"/>
<path d="M379 0H284V1H379V0Z" fill="#F2F2F2"/>
<path d="M246 267H85V265.804H244.841V207.805H98.5349L91.4275 192.517L92.4718 192L99.2638 206.609H246V267Z" fill="#2F2E41"/>
<path d="M106.5 296C113.404 296 119 290.404 119 283.5C119 276.596 113.404 271 106.5 271C99.5964 271 94 276.596 94 283.5C94 290.404 99.5964 296 106.5 296Z" fill="#3F3D56"/>
<path d="M226.5 296C233.404 296 239 290.404 239 283.5C239 276.596 233.404 271 226.5 271C219.596 271 214 276.596 214 283.5C214 290.404 219.596 296 226.5 296Z" fill="#3F3D56"/>
<path d="M368 26C372.418 26 376 22.4183 376 18C376 13.5817 372.418 10 368 10C363.582 10 360 13.5817 360 18C360 22.4183 363.582 26 368 26Z" fill="#3F3D56"/>
<path d="M263.589 188H82.2397L43 57H304L303.763 57.7708L263.589 188ZM83.0984 186.814H262.738L302.418 58.1855H44.5688L83.0984 186.814Z" fill="#2F2E41"/>
<path d="M307.118 45L306 44.6937L313.628 15H358V16.1942H314.518L307.118 45Z" fill="#2F2E41"/>
<path d="M291 97H56V98H291V97Z" fill="#2F2E41"/>
<path d="M277 140H69V142H277V140Z" fill="#2F2E41"/>
<path d="M174 57H173V188H174V57Z" fill="#2F2E41"/>
<path d="M226.045 57.518L217.726 187.71L218.883 187.788L227.202 57.5958L226.045 57.518Z" fill="#2F2E41"/>
<path d="M121.143 57.5164L119.987 57.5938L128.257 187.789L129.414 187.712L121.143 57.5164Z" fill="#2F2E41"/>
<path d="M361 297H0V298H361V297Z" fill="#2F2E41"/>
</svg>
