<svg width="287" height="330" viewBox="0 0 287 330" fill="none" xmlns="http://www.w3.org/2000/svg">
<path d="M167.218 324.765V225.568L174.018 231.06L179.571 225.568L185.45 230.407L191.002 225.568L196.555 230.733L203.251 225.568L208.15 230.407L213.539 225.568L218.929 230.897L225.461 225.568L231.013 230.733L236.893 225.568L243.098 230.897L248.651 225.568L254.04 230.244L259.92 225.568L266.125 230.244L271.515 225.568V324.765H167.218Z" fill="#FAFAFA"/>
<path d="M167.218 324.765C167.218 324.765 167.881 324.749 169.144 324.74C170.415 324.734 172.281 324.726 174.715 324.715C179.596 324.702 186.741 324.682 195.85 324.658C214.056 324.631 240.101 324.592 271.515 324.545L271.294 324.766C271.283 295.971 271.27 262.027 271.255 225.569L271.685 225.765C269.987 227.238 268.146 228.836 266.296 230.441L266.137 230.579L265.969 230.452C264.007 228.974 261.89 227.379 259.763 225.777L260.082 225.773C259.537 226.207 258.945 226.677 258.353 227.148C256.96 228.256 255.57 229.361 254.203 230.448L254.034 230.583L253.871 230.441C252.055 228.865 250.264 227.311 248.482 225.765L248.832 225.756C246.97 227.543 245.12 229.318 243.279 231.084L243.109 231.247L242.93 231.094C240.849 229.306 238.78 227.53 236.725 225.764L237.064 225.762C235.091 227.495 233.131 229.216 231.184 230.927L231.009 231.08L230.839 230.922C228.974 229.186 227.125 227.465 225.288 225.755L225.623 225.766C223.424 227.559 221.248 229.333 219.089 231.093L218.913 231.237L218.751 231.077C216.94 229.286 215.145 227.509 213.364 225.747L213.708 225.755C211.894 227.382 210.099 228.994 208.317 230.592L208.143 230.748L207.977 230.584C206.325 228.951 204.696 227.341 203.08 225.743L203.402 225.763C201.14 227.507 198.91 229.226 196.704 230.925L196.542 231.05L196.392 230.91C194.51 229.157 192.666 227.44 190.842 225.742L191.16 225.747C189.269 227.393 187.427 228.997 185.605 230.583L185.455 230.713L185.302 230.587C183.295 228.933 181.349 227.329 179.426 225.744L179.732 225.73C177.827 227.612 175.989 229.427 174.176 231.218L174.033 231.359L173.877 231.233C171.539 229.342 169.292 227.524 167.081 225.736L167.435 225.567C167.388 255.442 167.35 280.214 167.322 297.529C167.298 306.193 167.279 312.989 167.266 317.632C167.255 319.947 167.247 321.722 167.241 322.931C167.233 324.134 167.218 324.765 167.218 324.765C167.218 324.765 167.202 324.166 167.194 322.98C167.188 321.78 167.18 320.019 167.169 317.722C167.156 313.09 167.137 306.311 167.113 297.668C167.086 280.319 167.047 255.501 167.001 225.569L167 225.114L167.355 225.4C169.568 227.185 171.818 228.999 174.159 230.887L173.861 230.902C175.672 229.108 177.507 227.29 179.41 225.406L179.557 225.26L179.717 225.392C181.642 226.974 183.59 228.576 185.599 230.227L185.297 230.231C187.117 228.643 188.957 227.037 190.847 225.389L191.008 225.248L191.165 225.394C192.991 227.091 194.836 228.806 196.72 230.557L196.408 230.543C198.612 228.841 200.84 227.12 203.101 225.375L203.271 225.244L203.424 225.395C205.041 226.991 206.672 228.6 208.325 230.232L207.985 230.224C209.765 228.624 211.56 227.012 213.372 225.383L213.548 225.225L213.716 225.391C215.499 227.153 217.295 228.928 219.107 230.718L218.769 230.702C220.927 228.941 223.102 227.165 225.3 225.371L225.472 225.23L225.635 225.382C227.473 227.091 229.323 228.811 231.188 230.546L230.844 230.541C232.791 228.83 234.749 227.108 236.722 225.374L236.891 225.226L237.061 225.372C239.117 227.137 241.185 228.913 243.267 230.7L242.919 230.71C244.759 228.944 246.609 227.168 248.471 225.381L248.642 225.217L248.821 225.372C250.603 226.918 252.394 228.472 254.21 230.047L253.878 230.04C255.245 228.953 256.634 227.848 258.028 226.74C258.62 226.269 259.212 225.798 259.757 225.365L259.915 225.24L260.076 225.361C262.203 226.963 264.32 228.559 266.282 230.037L265.955 230.048C267.804 228.444 269.646 226.846 271.344 225.373L271.774 225V225.569C271.76 262.027 271.747 295.971 271.735 324.766V324.987H271.514C240.043 324.94 213.948 324.901 195.709 324.873C186.621 324.848 179.492 324.829 174.623 324.816C172.208 324.805 170.355 324.796 169.094 324.791C167.848 324.781 167.218 324.765 167.218 324.765Z" fill="#263238"/>
<path d="M221.474 265.831C221.474 265.975 211.752 266.091 199.763 266.091C187.769 266.091 178.05 265.974 178.05 265.831C178.05 265.688 187.77 265.571 199.763 265.571C211.752 265.57 221.474 265.687 221.474 265.831Z" fill="#263238"/>
<path d="M221.474 277.149C221.474 277.293 211.752 277.409 199.763 277.409C187.769 277.409 178.05 277.292 178.05 277.149C178.05 277.005 187.77 276.889 199.763 276.889C211.752 276.888 221.474 277.005 221.474 277.149Z" fill="#263238"/>
<path d="M221.474 288.467C221.474 288.611 211.752 288.727 199.763 288.727C187.769 288.727 178.05 288.61 178.05 288.467C178.05 288.323 187.77 288.207 199.763 288.207C211.752 288.206 221.474 288.323 221.474 288.467Z" fill="#263238"/>
<path d="M221.474 299.785C221.474 299.929 211.752 300.045 199.763 300.045C187.769 300.045 178.05 299.928 178.05 299.785C178.05 299.641 187.77 299.525 199.763 299.525C211.752 299.524 221.474 299.641 221.474 299.785Z" fill="#263238"/>
<path d="M257.276 265.6C257.276 265.744 253.915 265.86 249.769 265.86C245.622 265.86 242.262 265.743 242.262 265.6C242.262 265.456 245.622 265.34 249.769 265.34C253.914 265.339 257.276 265.456 257.276 265.6Z" fill="#263238"/>
<path d="M257.276 277.149C257.276 277.293 253.915 277.409 249.769 277.409C245.622 277.409 242.262 277.292 242.262 277.149C242.262 277.005 245.622 276.889 249.769 276.889C253.914 276.888 257.276 277.005 257.276 277.149Z" fill="#263238"/>
<path d="M257.276 288.698C257.276 288.842 253.915 288.958 249.769 288.958C245.622 288.958 242.262 288.841 242.262 288.698C242.262 288.554 245.622 288.438 249.769 288.438C253.914 288.437 257.276 288.554 257.276 288.698Z" fill="#263238"/>
<path d="M257.276 300.247C257.276 300.391 253.915 300.507 249.769 300.507C245.622 300.507 242.262 300.39 242.262 300.247C242.262 300.103 245.622 299.987 249.769 299.987C253.914 299.986 257.276 300.103 257.276 300.247Z" fill="#263238"/>
<path d="M167.292 311.431V308.298L271.281 303.572V311.912L167.292 311.431Z" fill="#6E02B1"/>
<path d="M191.704 329.099L80.1812 328.583C66.7682 328.522 55.9432 317.602 56.0002 304.189L57.1822 24.5975C57.2392 11.1775 68.1672 0.345506 81.5872 0.406506L193.11 0.921506C206.523 0.983506 217.347 11.9045 217.291 25.3175L216.109 304.908C216.052 318.329 205.125 329.161 191.704 329.099Z" fill="#263238"/>
<path d="M192.951 10.5718L171.329 10.4718C168.43 10.4588 166.068 12.9058 166.056 15.9358L166.039 19.8578C166.027 22.8888 163.665 25.3358 160.766 25.3228L118.619 25.1278C115.72 25.1148 113.379 22.6458 113.392 19.6148L113.409 15.6928C113.422 12.6618 111.081 10.1928 108.181 10.1798L100.577 10.1448L81.6524 10.0578C72.2534 10.0148 64.6004 17.6008 64.5604 26.9998L63.4064 299.9C63.3664 309.295 70.9474 316.943 80.3414 316.986L191.641 317.499C201.039 317.543 208.693 309.957 208.733 300.558L209.887 27.6568C209.926 18.2638 202.345 10.6158 192.951 10.5718Z" fill="#FAFAFA"/>
<path d="M129.962 291.373C129.957 292.462 128.925 293.341 127.657 293.335C126.389 293.329 125.365 292.44 125.369 291.351C125.374 290.262 126.405 289.382 127.674 289.389C128.942 289.395 129.966 290.283 129.962 291.373Z" fill="#455A64"/>
<path d="M137.078 291.406C137.073 292.495 136.042 293.374 134.773 293.368C133.505 293.363 132.481 292.474 132.485 291.384C132.489 290.295 133.521 289.416 134.79 289.422C136.058 289.428 137.082 290.316 137.078 291.406Z" fill="#455A64"/>
<path d="M144.193 291.437C144.189 292.526 143.157 293.406 141.888 293.399C140.62 293.394 139.596 292.505 139.6 291.415C139.605 290.326 140.636 289.447 141.905 289.453C143.173 289.459 144.198 290.347 144.193 291.437Z" fill="#455A64"/>
<path d="M182.161 176.035H91.0421C86.2061 176.035 82.2861 172.115 82.2861 167.279V72.7111C82.2861 67.8751 86.2061 63.9551 91.0421 63.9551H182.161C186.997 63.9551 190.917 67.8751 190.917 72.7111V167.279C190.918 172.114 186.997 176.035 182.161 176.035Z" fill="#F79540"/>
<path d="M182.161 176.534H91.0421C85.9381 176.534 81.7861 172.382 81.7861 167.278V72.7101C81.7861 67.6061 85.9381 63.4541 91.0421 63.4541H182.161C187.264 63.4541 191.417 67.6061 191.417 72.7101V167.278C191.417 172.382 187.265 176.534 182.161 176.534ZM91.0431 64.4541C86.4901 64.4541 82.7871 68.1581 82.7871 72.7101V167.278C82.7871 171.831 86.4911 175.534 91.0431 175.534H182.162C186.715 175.534 190.418 171.831 190.418 167.278V72.7101C190.418 68.1571 186.715 64.4541 182.162 64.4541H91.0431Z" fill="#455A64"/>
<path d="M157.907 202.247V192.315L158.994 193.401H155.735V191.384H160.421V202.247H157.907ZM166.964 202.433C166.074 202.433 165.278 202.216 164.574 201.782C163.871 201.337 163.317 200.695 162.914 199.857C162.51 199.019 162.308 198.005 162.308 196.815C162.308 195.626 162.51 194.612 162.914 193.774C163.317 192.936 163.871 192.3 164.574 191.865C165.278 191.42 166.074 191.198 166.964 191.198C167.864 191.198 168.661 191.42 169.354 191.865C170.057 192.3 170.611 192.936 171.014 193.774C171.418 194.612 171.62 195.626 171.62 196.815C171.62 198.005 171.418 199.019 171.014 199.857C170.611 200.695 170.057 201.337 169.354 201.782C168.661 202.216 167.864 202.433 166.964 202.433ZM166.964 200.307C167.388 200.307 167.755 200.188 168.066 199.95C168.387 199.712 168.635 199.335 168.811 198.817C168.997 198.3 169.09 197.633 169.09 196.815C169.09 195.998 168.997 195.331 168.811 194.814C168.635 194.296 168.387 193.919 168.066 193.681C167.755 193.443 167.388 193.324 166.964 193.324C166.55 193.324 166.183 193.443 165.862 193.681C165.552 193.919 165.304 194.296 165.117 194.814C164.941 195.331 164.853 195.998 164.853 196.815C164.853 197.633 164.941 198.3 165.117 198.817C165.304 199.335 165.552 199.712 165.862 199.95C166.183 200.188 166.55 200.307 166.964 200.307Z" fill="black"/>
<path d="M176.58 191.782C176.988 191.782 177.339 191.866 177.634 192.035C177.928 192.203 178.156 192.449 178.316 192.773C178.476 193.093 178.556 193.493 178.556 193.972C178.556 194.482 178.459 194.913 178.265 195.266C178.076 195.62 177.813 195.889 177.476 196.074C177.139 196.26 176.748 196.352 176.302 196.352C176.071 196.352 175.848 196.327 175.633 196.276C175.418 196.226 175.233 196.15 175.077 196.049L175.456 195.298C175.578 195.382 175.709 195.441 175.848 195.475C175.986 195.504 176.132 195.519 176.283 195.519C176.662 195.519 176.963 195.403 177.186 195.172C177.413 194.94 177.527 194.597 177.527 194.143C177.527 194.067 177.525 193.983 177.52 193.89C177.516 193.798 177.506 193.705 177.489 193.613L177.766 193.878C177.695 194.042 177.594 194.181 177.463 194.294C177.333 194.404 177.182 194.488 177.009 194.547C176.836 194.602 176.643 194.629 176.428 194.629C176.146 194.629 175.89 194.572 175.658 194.458C175.431 194.345 175.248 194.185 175.109 193.979C174.974 193.772 174.907 193.531 174.907 193.253C174.907 192.95 174.981 192.689 175.128 192.47C175.279 192.251 175.481 192.083 175.734 191.965C175.991 191.843 176.273 191.782 176.58 191.782ZM176.643 192.546C176.496 192.546 176.367 192.573 176.258 192.628C176.148 192.678 176.062 192.754 175.999 192.855C175.936 192.952 175.904 193.068 175.904 193.202C175.904 193.404 175.972 193.566 176.106 193.688C176.245 193.806 176.428 193.865 176.656 193.865C176.803 193.865 176.933 193.838 177.047 193.783C177.165 193.724 177.255 193.644 177.318 193.543C177.381 193.442 177.413 193.329 177.413 193.202C177.413 193.076 177.381 192.965 177.318 192.868C177.259 192.767 177.173 192.689 177.06 192.634C176.946 192.575 176.807 192.546 176.643 192.546ZM180.599 191.782C181.007 191.782 181.359 191.866 181.653 192.035C181.948 192.203 182.175 192.449 182.335 192.773C182.495 193.093 182.575 193.493 182.575 193.972C182.575 194.482 182.478 194.913 182.284 195.266C182.095 195.62 181.832 195.889 181.495 196.074C181.159 196.26 180.767 196.352 180.321 196.352C180.09 196.352 179.867 196.327 179.652 196.276C179.437 196.226 179.252 196.15 179.097 196.049L179.475 195.298C179.597 195.382 179.728 195.441 179.867 195.475C180.006 195.504 180.151 195.519 180.302 195.519C180.681 195.519 180.982 195.403 181.205 195.172C181.432 194.94 181.546 194.597 181.546 194.143C181.546 194.067 181.544 193.983 181.539 193.89C181.535 193.798 181.525 193.705 181.508 193.613L181.786 193.878C181.714 194.042 181.613 194.181 181.483 194.294C181.352 194.404 181.201 194.488 181.028 194.547C180.856 194.602 180.662 194.629 180.447 194.629C180.165 194.629 179.909 194.572 179.677 194.458C179.45 194.345 179.267 194.185 179.128 193.979C178.993 193.772 178.926 193.531 178.926 193.253C178.926 192.95 179 192.689 179.147 192.47C179.299 192.251 179.501 192.083 179.753 191.965C180.01 191.843 180.292 191.782 180.599 191.782ZM180.662 192.546C180.515 192.546 180.386 192.573 180.277 192.628C180.168 192.678 180.081 192.754 180.018 192.855C179.955 192.952 179.924 193.068 179.924 193.202C179.924 193.404 179.991 193.566 180.126 193.688C180.264 193.806 180.447 193.865 180.675 193.865C180.822 193.865 180.952 193.838 181.066 193.783C181.184 193.724 181.274 193.644 181.337 193.543C181.401 193.442 181.432 193.329 181.432 193.202C181.432 193.076 181.401 192.965 181.337 192.868C181.279 192.767 181.192 192.689 181.079 192.634C180.965 192.575 180.826 192.546 180.662 192.546Z" fill="#263238"/>
<path d="M182.541 198.175H174.781V199.159H182.541V198.175Z" fill="#263238"/>
<path d="M128.853 195.087H88.8032V196.329H128.853V195.087Z" fill="#263238"/>
<path d="M113.113 199.056H88.8032V200.298H113.113V199.056Z" fill="#263238"/>
<path d="M174.967 257.055L94.9032 256.686C94.0742 256.682 93.4062 255.78 93.4112 254.67L93.5001 233.725C93.5041 232.615 94.1802 231.72 95.0092 231.723L175.072 232.093C175.901 232.097 176.57 232.999 176.565 234.109L176.476 255.053C176.472 256.163 175.796 257.059 174.967 257.055Z" fill="#6E02B1"/>
<g opacity="0.5">
<path d="M174.967 257.055L94.9032 256.686C94.0742 256.682 93.4062 255.78 93.4112 254.67L93.5001 233.725C93.5041 232.615 94.1802 231.72 95.0092 231.723L175.072 232.093C175.901 232.097 176.57 232.999 176.565 234.109L176.476 255.053C176.472 256.163 175.796 257.059 174.967 257.055Z" fill="black"/>
</g>
<path d="M174.967 250.343L94.9032 249.974C94.0742 249.97 93.4062 249.068 93.4112 247.958L93.5001 227.013C93.5041 225.903 94.1802 225.008 95.0092 225.011L175.072 225.381C175.901 225.385 176.57 226.287 176.565 227.397L176.476 248.341C176.472 249.451 175.796 250.347 174.967 250.343Z" fill="#6E02B1"/>
<path d="M131.367 236.168C131.361 237.503 130.432 238.305 128.905 238.298L127.293 238.29L127.285 240.269L126.65 240.266L126.675 233.996L128.923 234.007C130.449 234.015 131.372 234.824 131.367 236.168ZM130.733 236.165C130.737 235.162 130.104 234.586 128.904 234.58L127.309 234.573L127.295 237.708L128.891 237.715C130.091 237.721 130.729 237.151 130.733 236.165Z" fill="white"/>
<path d="M136.193 238.636L132.848 238.62L132.121 240.292L131.461 240.289L134.231 234.032L134.858 234.035L137.575 240.317L136.907 240.313L136.193 238.636ZM135.963 238.098L134.537 234.723L133.082 238.084L135.963 238.098Z" fill="white"/>
<path d="M140.285 238.161L140.275 240.329L139.65 240.326L139.659 238.158L137.275 234.046L137.953 234.049L139.996 237.578L142.068 234.068L142.703 234.071L140.285 238.161Z" fill="white"/>
<path d="M153.447 138.059C153.447 138.076 153.205 138.092 152.744 138.108C152.235 138.12 151.562 138.135 150.72 138.154C148.905 138.173 146.363 138.2 143.225 138.233C136.82 138.255 127.996 138.284 118.065 138.317L117.84 138.318L117.809 138.094C117.623 136.763 117.425 135.354 117.225 133.926C115.516 121.697 114.028 110.772 113.1 103.709L113.263 103.851C110.434 103.819 108.173 103.793 106.562 103.775C105.821 103.757 105.23 103.743 104.779 103.732C104.374 103.717 104.164 103.702 104.164 103.686C104.164 103.67 104.374 103.655 104.779 103.64C105.23 103.629 105.82 103.615 106.562 103.597C108.173 103.579 110.434 103.553 113.263 103.521L113.405 103.519L113.426 103.663C114.469 110.709 116.032 121.624 117.74 133.853C117.939 135.281 118.135 136.691 118.321 138.021L118.065 137.798C127.995 137.831 136.82 137.861 143.225 137.882C146.363 137.915 148.905 137.942 150.72 137.961C151.563 137.98 152.235 137.995 152.744 138.007C153.205 138.026 153.447 138.043 153.447 138.059Z" fill="white"/>
<path d="M117.04 130.73C117.04 130.715 117.279 130.701 117.739 130.687C118.238 130.677 118.911 130.663 119.763 130.646C121.572 130.629 124.135 130.604 127.336 130.573C133.842 130.55 142.929 130.518 153.447 130.481L153.201 130.687C153.974 126.292 154.811 121.539 155.676 116.62C156.124 114.09 156.564 111.605 156.984 109.235L157.238 109.537C145.023 109.502 134.24 109.472 126.462 109.45C122.624 109.417 119.531 109.391 117.35 109.372C116.313 109.353 115.494 109.338 114.895 109.327C114.639 109.318 114.43 109.31 114.259 109.303C114.116 109.295 114.043 109.287 114.043 109.279C114.043 109.271 114.116 109.263 114.259 109.255C114.43 109.249 114.639 109.241 114.895 109.231C115.494 109.22 116.313 109.205 117.35 109.186C119.53 109.167 122.624 109.141 126.462 109.108C134.24 109.086 145.023 109.056 157.238 109.021L157.545 109.02L157.492 109.323C157.074 111.693 156.636 114.179 156.19 116.709C155.317 121.627 154.474 126.378 153.694 130.772L153.657 130.979L153.448 130.978C142.93 130.941 133.843 130.909 127.337 130.885C124.136 130.854 121.573 130.83 119.764 130.812C118.912 130.795 118.239 130.781 117.74 130.771C117.279 130.76 117.04 130.745 117.04 130.73Z" fill="white"/>
<path d="M126.91 147.664C126.863 147.665 126.859 147.349 126.701 146.825C126.545 146.31 126.18 145.564 125.401 144.998C124.648 144.43 123.424 144.121 122.248 144.567C121.082 144.976 120.081 146.218 120.093 147.664C120.08 149.111 121.081 150.353 122.248 150.762C123.424 151.207 124.648 150.899 125.401 150.33C126.18 149.764 126.545 149.018 126.701 148.503C126.858 147.978 126.863 147.662 126.91 147.664C126.934 147.662 127.002 147.981 126.898 148.552C126.795 149.111 126.458 149.953 125.625 150.622C124.82 151.291 123.444 151.696 122.085 151.212C120.738 150.772 119.557 149.342 119.574 147.663C119.558 145.985 120.739 144.555 122.085 144.115C123.444 143.631 124.82 144.035 125.625 144.705C126.459 145.374 126.795 146.216 126.898 146.775C127.001 147.347 126.934 147.666 126.91 147.664Z" fill="white"/>
<path d="M149.681 147.664C149.634 147.665 149.63 147.349 149.472 146.825C149.316 146.31 148.951 145.564 148.172 144.998C147.419 144.43 146.195 144.121 145.019 144.567C143.853 144.976 142.852 146.218 142.865 147.664C142.852 149.111 143.853 150.353 145.019 150.762C146.195 151.207 147.419 150.899 148.172 150.33C148.951 149.764 149.316 149.018 149.472 148.503C149.63 147.978 149.635 147.662 149.681 147.664C149.705 147.662 149.773 147.981 149.669 148.552C149.566 149.111 149.229 149.953 148.396 150.622C147.591 151.291 146.215 151.696 144.856 151.212C143.509 150.772 142.328 149.342 142.344 147.663C142.328 145.985 143.509 144.555 144.856 144.115C146.215 143.631 147.591 144.035 148.396 144.705C149.23 145.374 149.566 146.216 149.669 146.775C149.773 147.347 149.706 147.666 149.681 147.664Z" fill="white"/>
<path d="M155.303 115.797C160.879 115.797 165.4 111.276 165.4 105.7C165.4 100.123 160.879 95.6025 155.303 95.6025C149.727 95.6025 145.206 100.123 145.206 105.7C145.206 111.276 149.727 115.797 155.303 115.797Z" fill="#E0715F"/>
<path d="M160.358 103.041C160.462 103.14 158.36 105.533 155.663 108.386C155.16 108.912 154.675 109.42 154.216 109.899L154.049 110.073L153.872 109.916C151.695 107.982 150.171 106.527 150.248 106.439C150.325 106.351 151.978 107.656 154.198 109.54L153.854 109.557C154.307 109.072 154.787 108.559 155.284 108.028C157.982 105.175 160.254 102.942 160.358 103.041Z" fill="#263238"/>
<g opacity="0.55">
<path d="M0.607667 103.17C0.607667 103.17 0.563656 102.953 0.502656 102.525C0.441656 102.078 0.356661 101.445 0.244661 100.621C0.199661 100.201 0.104657 99.735 0.084657 99.214C0.070657 98.691 0.05466 98.121 0.03766 97.505C0.03166 96.888 -0.0213399 96.221 0.00966008 95.51C0.0626601 94.799 0.119666 94.043 0.178666 93.243C0.507666 90.062 1.22566 86.135 3.09566 81.949C4.92666 77.77 7.85767 73.321 12.1597 69.478C12.7007 69.004 13.2487 68.523 13.8027 68.038C14.3867 67.59 15.0027 67.168 15.6117 66.725C16.7997 65.789 18.1837 65.096 19.5337 64.291C22.3367 62.885 25.3817 61.601 28.7097 60.934C30.3487 60.484 32.0727 60.351 33.8087 60.125C34.6787 60.029 35.5647 60.065 36.4527 60.029C36.8977 60.019 37.3437 60.01 37.7917 60C38.2387 60.014 38.6867 60.065 39.1367 60.095C42.7477 60.251 46.4157 61.115 49.9727 62.462C57.1307 65.099 63.6827 70.394 68.1137 77.41C70.3557 80.908 71.9107 84.913 72.8127 89.094C73.8097 93.264 73.9337 97.692 73.3377 102.048C73.2577 102.609 73.1647 103.167 73.0637 103.721L73.0187 103.521C77.0357 109.108 80.9727 114.583 84.7847 119.884L85.1427 120.381L84.5377 120.287C78.5457 119.354 72.7367 118.451 67.1597 117.583L67.4027 117.476C63.8257 122.78 59.0237 126.93 53.7957 129.646C51.1757 130.996 48.4587 132.002 45.7367 132.68C44.3777 133.025 43.0147 133.288 41.6557 133.424C40.9777 133.506 40.3047 133.587 39.6357 133.667C38.9667 133.746 38.2957 133.711 37.6327 133.738C32.3227 133.868 27.3337 132.822 23.0437 131.082C18.7407 129.343 15.1337 126.928 12.2347 124.357C11.5317 123.689 10.8467 123.037 10.1797 122.404C9.57666 121.71 8.99067 121.034 8.42267 120.379C7.82567 119.746 7.37366 119.032 6.89566 118.373C6.44066 117.698 5.93267 117.09 5.56667 116.423C3.99867 113.819 2.91666 111.446 2.22766 109.453C1.90266 108.452 1.61366 107.565 1.36366 106.794C1.19466 106.01 1.05166 105.345 0.934663 104.803C0.825663 104.278 0.741665 103.875 0.680665 103.584C0.625665 103.311 0.607667 103.17 0.607667 103.17C0.607667 103.17 0.653666 103.307 0.721666 103.578C0.791666 103.866 0.889664 104.266 1.01666 104.786C1.14366 105.324 1.29966 105.984 1.48366 106.762C1.74366 107.526 2.04367 108.406 2.38167 109.399C3.09167 111.374 4.19066 113.724 5.76866 116.297C6.13666 116.956 6.64767 117.557 7.10367 118.223C7.58267 118.874 8.03566 119.579 8.63266 120.204C9.20066 120.851 9.78666 121.518 10.3887 122.203C11.0537 122.828 11.7377 123.47 12.4387 124.129C15.3277 126.663 18.9127 129.038 23.1797 130.742C27.4347 132.448 32.3717 133.464 37.6207 133.32C38.2757 133.291 38.9397 133.324 39.6007 133.244C40.2617 133.162 40.9267 133.08 41.5967 132.997C42.9397 132.86 44.2857 132.596 45.6277 132.251C48.3157 131.575 50.9967 130.574 53.5807 129.237C58.7367 126.544 63.4677 122.441 66.9907 117.202L67.0787 117.071L67.2347 117.095C72.8127 117.957 78.6227 118.855 84.6157 119.781L84.3687 120.184C80.5547 114.884 76.6157 109.41 72.5957 103.825L72.5307 103.735L72.5507 103.625C72.6507 103.079 72.7427 102.529 72.8207 101.975C73.4077 97.681 73.2877 93.316 72.3057 89.203C71.4177 85.079 69.8887 81.13 67.6797 77.679C63.3167 70.758 56.8607 65.524 49.7997 62.91C46.2917 61.574 42.6727 60.713 39.1077 60.552C38.6627 60.521 38.2207 60.469 37.7787 60.454L36.4567 60.48C35.5797 60.514 34.7037 60.475 33.8437 60.568C32.1277 60.788 30.4237 60.914 28.8027 61.354C25.5107 62.003 22.4967 63.264 19.7197 64.645C18.3827 65.437 17.0097 66.117 15.8317 67.039C15.2277 67.476 14.6167 67.891 14.0357 68.331C13.4857 68.81 12.9417 69.283 12.4037 69.75C8.12966 73.537 5.20167 77.931 3.35967 82.066C1.47867 86.207 0.736663 90.101 0.378663 93.262C0.310663 94.058 0.246662 94.809 0.186662 95.516C0.147662 96.223 0.19266 96.886 0.19066 97.501C0.19866 98.116 0.205663 98.684 0.212663 99.205C0.224663 99.725 0.311658 100.19 0.347658 100.609C0.436658 101.434 0.505658 102.068 0.554658 102.516C0.598658 102.947 0.607667 103.17 0.607667 103.17Z" fill="#0B0C0D"/>
</g>
<g filter="url(#filter0_d_656_232)">
<path d="M24.8059 82.8711L20.4199 116.123H52.9329L48.1959 82.8711H24.8059Z" fill="#550885"/>
<path d="M45.5558 87.6969C45.5908 87.7039 45.5558 88.0539 45.3678 88.6549C45.1778 89.2529 44.8348 90.1089 44.2008 91.0499C43.5708 91.9859 42.6228 93.0079 41.3018 93.7589C39.9908 94.5189 38.3238 94.9439 36.5918 94.9419C34.8608 94.9589 33.1868 94.5929 31.8568 93.8549C30.5128 93.1329 29.5858 92.0669 28.9868 91.1119C28.3858 90.1459 28.0878 89.2709 27.9308 88.6639C27.7758 88.0529 27.7638 87.7009 27.7978 87.6969C27.8848 87.6659 28.0778 89.0839 29.2948 90.9099C29.9088 91.8009 30.8108 92.7779 32.0848 93.4329C33.3458 94.1029 34.9248 94.4369 36.5858 94.4209C38.2488 94.4219 39.8198 94.0329 41.0688 93.3389C42.3268 92.6529 43.2548 91.7119 43.8998 90.8369C45.1838 89.0559 45.4728 87.6639 45.5558 87.6969Z" fill="white"/>
</g>
<g filter="url(#filter1_d_656_232)">
<path d="M267.561 143.788L120.994 133.112C116.84 132.809 113.717 129.196 114.02 125.042L120.58 34.9943C120.883 30.8403 124.496 27.7173 128.65 28.0203L275.218 38.6983C279.372 39.0013 282.494 42.6133 282.191 46.7673L275.631 136.814C275.328 140.968 271.715 144.091 267.561 143.788Z" fill="#6E02B1"/>
<path d="M130.59 95.7444L129.937 104.714L129.014 104.647L129.608 96.4984L127.494 96.3444L127.554 95.5254L130.59 95.7444Z" fill="white"/>
<path d="M139.223 104.567L139.162 105.387L132.87 104.929L132.918 104.276L136.913 100.895C137.998 99.9696 138.234 99.3806 138.278 98.7656C138.354 97.7286 137.671 97.0336 136.299 96.9346C135.248 96.8576 134.418 97.1196 133.779 97.7556L133.166 97.1446C133.918 96.3746 135.066 95.9946 136.437 96.0936C138.256 96.2266 139.342 97.2335 139.234 98.7325C139.171 99.5905 138.845 100.34 137.555 101.432L134.287 104.207L139.223 104.567Z" fill="white"/>
<path d="M148.778 103.718L146.984 103.587L146.812 105.944L145.889 105.877L146.061 103.52L141 103.152L141.049 102.485L146.236 96.8848L147.26 96.9598L142.251 102.418L146.147 102.701L146.298 100.625L147.194 100.69L147.043 102.766L148.838 102.897L148.778 103.718Z" fill="white"/>
<path d="M162.527 104.719L160.733 104.589L160.561 106.946L159.638 106.879L159.81 104.521L154.749 104.152L154.798 103.485L159.985 97.8857L161.01 97.9597L156.001 103.418L159.897 103.702L160.048 101.626L160.944 101.691L160.793 103.767L162.587 103.897L162.527 104.719Z" fill="white"/>
<path d="M170.389 105.007C170.278 106.532 169.127 107.647 166.936 107.487C165.642 107.393 164.445 106.855 163.804 106.1L164.306 105.402C164.838 106.047 165.831 106.556 166.985 106.64C168.51 106.751 169.372 106.067 169.451 104.978C169.536 103.825 168.87 103.054 166.59 102.888L164.68 102.749L165.469 98.2852L170.377 98.6422L170.316 99.4622L166.215 99.1631L165.7 101.998L166.853 102.082C169.557 102.28 170.504 103.418 170.389 105.007Z" fill="white"/>
<path d="M179.259 105.616C179.137 107.294 177.738 108.273 175.995 108.146C173.612 107.972 172.438 106.226 172.644 103.394C172.866 100.344 174.648 98.8755 177.083 99.0535C177.89 99.1125 178.636 99.3085 179.174 99.6955L178.749 100.412C178.31 100.071 177.703 99.9105 177.037 99.8625C175.101 99.7205 173.768 100.874 173.591 103.309C173.576 103.514 173.57 103.771 173.576 104.042C174.097 103.088 175.187 102.611 176.43 102.702C178.211 102.833 179.378 103.976 179.259 105.616ZM178.347 105.573C178.433 104.395 177.617 103.575 176.233 103.474C174.862 103.374 173.865 104.152 173.784 105.267C173.712 106.253 174.465 107.25 176.014 107.363C177.309 107.457 178.26 106.766 178.347 105.573Z" fill="white"/>
<path d="M191.527 106.611C191.418 108.11 190.245 109.184 188.08 109.027C186.785 108.932 185.575 108.393 184.934 107.638L185.436 106.94C185.968 107.584 186.974 108.095 188.141 108.18C189.626 108.288 190.497 107.658 190.579 106.542C190.657 105.466 189.952 104.706 188.287 104.585L187.646 104.538L187.696 103.857L190.408 100.924L185.821 100.59L185.881 99.7705L191.648 100.19L191.6 100.844L188.831 103.85C190.744 104.094 191.631 105.176 191.527 106.611Z" fill="white"/>
<path d="M200.53 107.164C200.408 108.843 199.008 109.823 197.266 109.696C194.883 109.522 193.709 107.775 193.915 104.943C194.137 101.892 195.919 100.425 198.353 100.602C199.161 100.662 199.907 100.857 200.445 101.244L200.02 101.961C199.58 101.62 198.974 101.46 198.308 101.411C196.372 101.27 195.039 102.423 194.862 104.857C194.847 105.062 194.841 105.319 194.847 105.59C195.368 104.636 196.458 104.161 197.701 104.252C199.482 104.383 200.649 105.523 200.53 107.164ZM199.618 107.123C199.704 105.944 198.887 105.125 197.504 105.024C196.133 104.924 195.136 105.702 195.055 106.816C194.983 107.803 195.735 108.799 197.285 108.911C198.58 109.006 199.531 108.315 199.618 107.123Z" fill="white"/>
<path d="M209.24 101.474L209.192 102.127L204.832 110.17L203.833 110.097L208.117 102.216L203.504 101.88L203.382 103.559L202.472 103.493L202.655 100.995L209.24 101.474Z" fill="white"/>
<path d="M222.066 102.409L222.018 103.061L217.658 111.104L216.659 111.032L220.943 103.151L216.33 102.815L216.208 104.494L215.298 104.428L215.481 101.929L222.066 102.409Z" fill="white"/>
<path d="M230.422 109.522C230.307 111.112 228.89 112 226.749 111.844C224.597 111.687 223.361 110.605 223.478 109.016C223.556 107.94 224.226 107.228 225.368 106.938C224.485 106.513 224.035 105.797 224.102 104.862C224.208 103.402 225.518 102.583 227.415 102.72C229.311 102.858 230.514 103.861 230.407 105.322C230.34 106.258 229.777 106.899 228.829 107.191C229.928 107.644 230.5 108.458 230.422 109.522ZM229.475 109.441C229.556 108.338 228.658 107.577 227.069 107.461C225.481 107.346 224.495 107.97 224.415 109.071C224.334 110.186 225.219 110.946 226.808 111.062C228.396 111.178 229.394 110.555 229.475 109.441ZM227.122 106.73C228.519 106.832 229.397 106.265 229.469 105.291C229.542 104.278 228.702 103.6 227.357 103.502C225.999 103.402 225.096 103.955 225.023 104.955C224.951 105.941 225.725 106.629 227.122 106.73Z" fill="white"/>
<path d="M239.286 108.094C239.063 111.143 237.282 112.612 234.848 112.434C234.04 112.375 233.294 112.178 232.756 111.791L233.182 111.075C233.622 111.417 234.227 111.576 234.894 111.625C236.829 111.766 238.163 110.614 238.339 108.18C238.355 107.974 238.361 107.717 238.354 107.447C237.833 108.401 236.744 108.875 235.501 108.785C233.72 108.655 232.553 107.513 232.673 105.874C232.795 104.195 234.194 103.215 235.936 103.342C238.319 103.514 239.493 105.262 239.286 108.094ZM238.148 106.22C238.219 105.234 237.467 104.238 235.917 104.125C234.623 104.03 233.671 104.722 233.584 105.913C233.498 107.092 234.314 107.912 235.698 108.013C237.069 108.112 238.066 107.335 238.148 106.22Z" fill="white"/>
<path d="M248.705 104.348L248.052 113.319L247.129 113.252L247.723 105.102L245.609 104.948L245.669 104.129L248.705 104.348Z" fill="white"/>
<path d="M257.336 113.17L257.276 113.99L250.984 113.531L251.032 112.878L255.027 109.497C256.112 108.572 256.348 107.983 256.392 107.368C256.468 106.331 255.785 105.637 254.414 105.537C253.363 105.46 252.532 105.722 251.893 106.357L251.281 105.747C252.032 104.977 253.181 104.597 254.552 104.696C256.371 104.829 257.457 105.836 257.349 107.335C257.286 108.193 256.96 108.942 255.67 110.034L252.401 112.81L257.336 113.17Z" fill="white"/>
<path d="M265.512 112C265.403 113.5 264.229 114.574 262.064 114.416C260.769 114.322 259.559 113.782 258.918 113.027L259.42 112.33C259.952 112.975 260.959 113.485 262.125 113.57C263.611 113.677 264.481 113.046 264.563 111.931C264.641 110.855 263.936 110.095 262.27 109.974L261.629 109.927L261.679 109.247L264.392 106.314L259.804 105.979L259.864 105.16L265.631 105.58L265.583 106.233L262.812 109.239C264.729 109.483 265.617 110.566 265.512 112Z" fill="white"/>
<path d="M195.919 116.193L195.635 120.089L267.498 125.32L267.781 121.424L195.919 116.193Z" fill="white"/>
<path d="M230.344 126.51L230.06 130.407L266.917 133.09L267.201 129.193L230.344 126.51Z" fill="white"/>
<g opacity="0.5">
<path d="M150.837 89.4567L130.585 87.9817C127.851 87.7827 125.796 85.4047 125.995 82.6707L126.915 70.0467C127.114 67.3127 129.492 65.2577 132.226 65.4567L152.476 66.9317C155.21 67.1307 157.265 69.5087 157.066 72.2417L156.148 84.8647C155.95 87.6007 153.572 89.6567 150.837 89.4567Z" fill="black"/>
</g>
<path d="M126.089 81.3851L126.195 79.9401L141.719 81.0721C143.509 81.2011 145.074 79.8511 145.205 78.0581C145.335 76.2661 143.964 74.6821 142.192 74.5731L126.667 73.4411L126.774 71.9961L142.298 73.1281C144.885 73.3171 146.838 75.5751 146.651 78.1631C146.462 80.7521 144.202 82.7051 141.615 82.5171L126.089 81.3851Z" fill="#B16802"/>
<path d="M145.996 77.385L145.889 78.8301L156.544 79.6164L156.651 78.1713L145.996 77.385Z" fill="#B16802"/>
<path d="M209.759 52.4815L132.211 46.8291L131.726 53.4848L209.274 59.1372L209.759 52.4815Z" fill="white"/>
</g>
<defs>
<filter id="filter0_d_656_232" x="16.4199" y="82.8711" width="40.5132" height="41.252" filterUnits="userSpaceOnUse" color-interpolation-filters="sRGB">
<feFlood flood-opacity="0" result="BackgroundImageFix"/>
<feColorMatrix in="SourceAlpha" type="matrix" values="0 0 0 0 0 0 0 0 0 0 0 0 0 0 0 0 0 0 127 0" result="hardAlpha"/>
<feOffset dy="4"/>
<feGaussianBlur stdDeviation="2"/>
<feComposite in2="hardAlpha" operator="out"/>
<feColorMatrix type="matrix" values="0 0 0 0 0 0 0 0 0 0 0 0 0 0 0 0 0 0 0.25 0"/>
<feBlend mode="normal" in2="BackgroundImageFix" result="effect1_dropShadow_656_232"/>
<feBlend mode="normal" in="SourceGraphic" in2="effect1_dropShadow_656_232" result="shape"/>
</filter>
<filter id="filter1_d_656_232" x="110" y="28" width="176.211" height="123.809" filterUnits="userSpaceOnUse" color-interpolation-filters="sRGB">
<feFlood flood-opacity="0" result="BackgroundImageFix"/>
<feColorMatrix in="SourceAlpha" type="matrix" values="0 0 0 0 0 0 0 0 0 0 0 0 0 0 0 0 0 0 127 0" result="hardAlpha"/>
<feOffset dy="4"/>
<feGaussianBlur stdDeviation="2"/>
<feComposite in2="hardAlpha" operator="out"/>
<feColorMatrix type="matrix" values="0 0 0 0 0 0 0 0 0 0 0 0 0 0 0 0 0 0 0.25 0"/>
<feBlend mode="normal" in2="BackgroundImageFix" result="effect1_dropShadow_656_232"/>
<feBlend mode="normal" in="SourceGraphic" in2="effect1_dropShadow_656_232" result="shape"/>
</filter>
</defs>
</svg>
